<?xml version="1.0" standalone="no"?>
<!DOCTYPE svg PUBLIC "-//W3C//DTD SVG 20010904//EN"
 "http://www.w3.org/TR/2001/REC-SVG-20010904/DTD/svg10.dtd">
<svg version="1.0" xmlns="http://www.w3.org/2000/svg"
 width="660.000000pt" height="660.000000pt" viewBox="0 0 660.000000 660.000000"
 preserveAspectRatio="xMidYMid meet">
<metadata>
Created by potrace 1.14, written by Peter Selinger 2001-2017
</metadata>
<g transform="translate(0.000000,660.000000) scale(0.100000,-0.100000)"
fill="#000000" stroke="none">
<path d="M2949 6546 c-2 -2 -33 -6 -69 -10 -89 -8 -130 -14 -165 -21 -16 -3
-44 -8 -61 -10 -41 -6 -247 -59 -309 -80 -204 -69 -405 -165 -580 -278 -94
-61 -74 -46 -205 -149 -86 -68 -296 -268 -335 -320 -5 -7 -17 -22 -25 -32 -15
-19 -14 -19 13 -2 15 10 27 22 27 27 0 5 6 9 14 9 8 0 16 4 18 9 2 5 46 36 98
69 52 34 100 66 107 72 7 5 18 10 26 10 7 0 23 9 35 20 12 11 24 20 27 20 3 0
57 25 120 55 62 30 120 55 127 55 8 0 18 4 23 9 16 14 220 81 325 106 146 35
204 44 370 62 126 13 454 6 560 -11 14 -3 43 -7 65 -10 46 -6 57 -9 180 -35
91 -20 308 -90 347 -111 10 -6 22 -10 28 -10 16 0 251 -116 327 -161 155 -93
398 -276 426 -320 6 -10 15 -19 20 -19 31 0 377 -413 377 -449 0 -6 4 -11 9
-11 5 0 13 -10 17 -22 4 -13 10 -25 14 -28 38 -27 224 -426 254 -545 2 -5 6
-17 9 -25 19 -48 70 -271 82 -357 3 -21 8 -49 11 -62 24 -108 23 -534 0 -671
-3 -14 -7 -41 -10 -60 -10 -61 -16 -94 -22 -120 -7 -27 -15 -68 -16 -87 -1 -7
-5 -13 -10 -13 -5 0 -7 -4 -4 -9 17 -27 -161 -492 -213 -553 -8 -10 -11 -18
-7 -18 4 0 -2 -13 -13 -29 -12 -16 -21 -32 -21 -35 0 -15 -184 -284 -205 -298
-7 -5 -6 -8 2 -8 11 0 254 236 308 300 66 78 138 175 185 248 28 42 53 82 57
87 5 6 15 24 23 40 8 17 18 32 21 35 9 8 105 207 129 270 58 145 108 304 131
415 7 33 13 62 14 65 0 3 4 27 9 53 4 27 9 59 12 70 13 66 19 184 18 362 0
217 -6 291 -35 445 -6 30 -13 69 -16 85 -2 17 -11 53 -18 80 -8 28 -21 76 -30
109 -48 176 -179 459 -295 640 -56 85 -63 96 -82 120 -54 67 -104 131 -113
145 -25 41 -291 294 -380 362 -106 81 -269 189 -284 189 -5 0 -11 3 -13 8 -5
11 -221 116 -308 150 -121 47 -255 91 -335 109 -137 30 -202 43 -260 49 -27 3
-61 8 -75 11 -29 6 -445 14 -451 9z"/>
<path d="M5680 5527 c0 -3 6 -12 13 -19 28 -29 77 -97 77 -106 0 -5 7 -15 15
-22 23 -19 139 -217 190 -326 41 -86 113 -260 120 -289 1 -5 4 -17 7 -25 16
-46 42 -139 54 -190 24 -108 42 -204 50 -275 14 -124 17 -167 17 -300 2 -202
-13 -353 -49 -519 -22 -101 -23 -108 -30 -141 -3 -16 -9 -34 -12 -40 -4 -5 -7
-15 -8 -22 -2 -13 -23 -80 -31 -103 -4 -8 -7 -17 -8 -20 -6 -26 -29 -87 -35
-95 -4 -5 -11 -21 -15 -35 -13 -42 -114 -248 -157 -319 -169 -279 -371 -512
-608 -697 -76 -59 -198 -147 -220 -157 -8 -4 -28 -16 -45 -27 -63 -41 -334
-177 -370 -185 -5 -1 -23 -7 -40 -14 -16 -7 -66 -24 -110 -37 -44 -14 -100
-31 -125 -39 -25 -7 -56 -16 -70 -18 -14 -3 -36 -8 -50 -11 -14 -3 -36 -8 -50
-10 -14 -2 -41 -7 -60 -10 -19 -3 -48 -8 -65 -11 -127 -22 -348 -31 -515 -20
-90 5 -179 14 -200 20 -8 2 -35 7 -60 10 -75 10 -81 12 -205 43 -204 53 -348
108 -551 213 -135 69 -359 216 -386 254 -4 6 -8 6 -8 1 0 -26 232 -261 365
-368 214 -172 514 -336 770 -420 97 -32 265 -77 307 -83 15 -2 35 -6 45 -9 21
-6 98 -17 131 -19 12 0 22 -3 22 -6 0 -14 353 -19 495 -8 122 10 304 36 318
46 1 2 14 4 28 6 14 2 45 9 70 15 24 7 54 14 66 16 35 7 222 73 313 112 120
51 355 176 380 202 3 3 41 30 85 60 44 30 85 59 91 65 6 5 28 24 49 40 231
181 477 481 628 765 87 165 191 429 212 537 2 10 4 19 5 21 2 1 3 5 4 10 6 24
27 122 31 143 2 13 9 51 15 85 32 183 35 568 5 744 -2 14 -6 41 -9 60 -9 59
-16 93 -28 135 -5 22 -11 47 -13 55 -2 8 -8 35 -15 60 -7 25 -14 52 -15 60
-13 59 -94 264 -147 373 -21 43 -38 82 -38 87 0 6 -4 10 -10 10 -5 0 -10 4
-10 10 0 11 -39 77 -108 185 -121 188 -279 365 -480 539 -12 11 -22 16 -22 13z"/>
<path d="M2547 5364 c-3 -3 -61 -8 -129 -10 -67 -2 -141 -6 -163 -8 -110 -11
-316 -51 -415 -81 -47 -14 -92 -27 -100 -30 -144 -38 -417 -167 -593 -281
-247 -160 -489 -390 -668 -636 -78 -106 -139 -207 -209 -344 -37 -72 -69 -139
-73 -150 -3 -10 -16 -44 -27 -74 -25 -65 -79 -226 -84 -249 -1 -9 -8 -34 -14
-56 -6 -22 -13 -51 -16 -65 -18 -92 -26 -140 -31 -175 -3 -22 -9 -62 -13 -90
-9 -66 -9 -495 1 -565 4 -30 12 -81 18 -113 5 -32 12 -71 14 -87 2 -16 6 -38
10 -49 3 -11 8 -29 10 -42 2 -12 12 -47 21 -78 9 -31 18 -63 19 -71 2 -8 11
-35 20 -60 9 -25 18 -52 20 -60 14 -69 162 -372 241 -497 36 -56 128 -186 149
-210 5 -6 24 -29 40 -50 37 -46 156 -173 209 -222 21 -20 56 -53 78 -73 22
-21 42 -38 45 -38 6 0 -19 43 -34 58 -28 28 -162 240 -210 332 -114 219 -219
521 -248 715 -4 22 -8 51 -11 65 -19 100 -28 227 -28 395 0 143 3 194 19 340
4 38 27 159 40 215 3 14 8 36 11 50 3 14 7 30 8 35 1 6 15 51 30 100 122 392
334 745 620 1030 67 67 135 132 151 146 155 129 330 245 492 327 106 53 282
130 315 136 7 2 22 6 33 10 77 29 190 58 325 85 247 48 519 57 775 27 69 -9
138 -20 190 -32 33 -7 74 -16 92 -19 104 -17 342 -102 508 -181 131 -61 424
-244 447 -278 4 -6 10 -8 13 -4 17 16 -246 273 -395 387 -25 19 -47 37 -50 40
-3 3 -17 12 -32 20 -15 8 -36 21 -46 30 -22 20 -39 30 -122 78 -36 20 -66 41
-68 45 -2 4 -8 8 -13 8 -5 0 -56 22 -112 50 -86 42 -254 110 -307 125 -8 3
-52 15 -97 28 -46 14 -83 23 -83 20 0 -2 -8 1 -18 6 -35 19 -294 56 -455 66
-43 2 -82 7 -86 9 -5 3 -11 3 -14 0z"/>
<path d="M2032 4468 c-126 -114 -243 -240 -336 -363 -37 -50 -74 -98 -82 -108
-8 -9 -14 -21 -14 -26 0 -5 -7 -15 -16 -22 -9 -7 -20 -22 -25 -34 -5 -11 -25
-47 -45 -80 -56 -95 -148 -291 -187 -400 -41 -111 -110 -356 -102 -363 2 -3 0
-12 -4 -21 -5 -9 -12 -41 -15 -72 -4 -31 -9 -67 -11 -80 -25 -123 -24 -546 0
-671 3 -13 10 -50 15 -83 15 -91 20 -118 26 -137 3 -9 7 -25 9 -36 11 -58 83
-283 113 -352 31 -72 146 -306 162 -330 10 -14 39 -59 65 -100 27 -41 52 -76
57 -78 4 -2 8 -8 8 -14 0 -8 58 -86 80 -108 3 -3 27 -32 55 -65 63 -76 251
-262 287 -283 16 -9 28 -19 28 -23 0 -9 178 -137 253 -183 32 -19 63 -39 70
-44 13 -10 207 -108 267 -135 120 -52 345 -126 422 -137 4 -1 22 -6 40 -11 18
-5 49 -12 68 -15 19 -3 45 -7 58 -10 12 -2 32 -6 45 -8 143 -28 588 -28 730 0
12 2 39 6 62 10 22 3 67 12 100 19 33 8 71 16 85 19 73 14 257 76 370 123 136
58 381 192 465 255 73 55 223 176 260 210 90 82 235 238 235 253 -1 6 -6 3
-13 -5 -7 -8 -26 -24 -42 -36 -65 -45 -192 -130 -214 -142 -200 -115 -301
-161 -511 -232 -63 -21 -126 -41 -140 -44 -14 -3 -43 -10 -65 -16 -256 -65
-643 -83 -920 -44 -34 4 -127 21 -225 40 -14 3 -49 12 -79 21 -29 8 -59 16
-65 18 -6 1 -18 5 -26 8 -8 3 -49 17 -90 30 -163 55 -349 143 -489 231 -22 15
-45 26 -50 26 -5 0 -11 4 -13 9 -3 7 -47 39 -107 76 -9 6 -18 12 -21 15 -3 3
-43 36 -90 74 -102 82 -267 246 -339 336 -113 140 -134 169 -203 280 -73 118
-182 331 -203 400 -1 3 -7 19 -14 35 -22 51 -71 207 -87 275 -9 36 -17 70 -18
75 -7 25 -17 83 -21 110 -2 17 -4 30 -5 30 -2 0 -7 33 -15 105 -4 36 -9 83
-11 105 -7 53 -7 335 0 410 36 431 188 855 435 1215 24 36 57 82 74 103 38 49
28 47 -31 -5z"/>
</g>
</svg>
