<svg xmlns="http://www.w3.org/2000/svg" width="14" height="18" viewBox="0 0 14 18"><defs><style>.a{fill:none;}.b,.c{stroke:none;}.c{fill:#fe5d1f;}</style></defs><g class="a" transform="translate(-7.5 -4.5)"><path class="b" d="M19.5,4.5H9.5a2,2,0,0,0-1.99,2l-.01,16,7-3,7,3V6.5A2.006,2.006,0,0,0,19.5,4.5Z"/><path class="c" d="M 9.5 6 C 9.22981071472168 6 9.009990692138672 6.224300384521484 9.009990692138672 6.500940322875977 L 9.001420974731445 20.22457885742188 L 14.5 17.86804962158203 L 20 20.22518920898438 L 20 6.5 C 20 6.228969573974609 19.77101898193359 6 19.49999046325684 6 L 9.5 6 M 9.5 4.5 L 19.49999046325684 4.5 C 20.60000991821289 4.5 21.5 5.399999618530273 21.5 6.5 L 21.5 22.5 L 14.5 19.5 L 7.5 22.5 L 7.509990692138672 6.5 C 7.509990692138672 5.399999618530273 8.399999618530273 4.5 9.5 4.5 Z"/></g></svg>