<svg xmlns="http://www.w3.org/2000/svg" width="20.5" height="20.5" viewBox="0 0 20.5 20.5"><defs><style>.a{fill:#fff;}</style></defs><circle class="a" cx="1.206" cy="1.206" r="1.206" transform="translate(12.734 7.802)"/><circle class="a" cx="1.206" cy="1.206" r="1.206" transform="translate(9.044 7.802)"/><circle class="a" cx="1.206" cy="1.206" r="1.206" transform="translate(5.355 7.802)"/><path class="a" d="M19.7,0H.8A.8.8,0,0,0,0,.8V16.656a.8.8,0,0,0,.8.8H7.887l1.686,2.67a.8.8,0,0,0,1.354,0l1.686-2.67H19.7a.8.8,0,0,0,.8-.8V.8A.8.8,0,0,0,19.7,0Zm-.8,15.855H12.172a.8.8,0,0,0-.677.373L10.25,18.2,9.005,16.229a.8.8,0,0,0-.677-.373H1.6V1.6H18.9Z"/></svg>