<svg xmlns="http://www.w3.org/2000/svg" xmlns:xlink="http://www.w3.org/1999/xlink" width="72" height="72" viewBox="0 0 72 72"><defs><style>.a{fill:#fff;stroke:#fe5d1f;}.b{fill:#fe5d1f;}.c{stroke:none;}.d{fill:none;}.e{filter:url(#a);}</style><filter id="a" x="0" y="0" width="72" height="72" filterUnits="userSpaceOnUse"><feOffset dx="6" dy="6" input="SourceAlpha"/><feGaussianBlur stdDeviation="4" result="b"/><feFlood flood-color="#ececec"/><feComposite operator="in" in2="b"/><feComposite in="SourceGraphic"/></filter></defs><g transform="translate(-316 -86)"><g class="e" transform="matrix(1, 0, 0, 1, 316, 86)"><g class="a" transform="translate(6 6)"><path class="c" d="M0,0H40a8,8,0,0,1,8,8V40a8,8,0,0,1-8,8H0a0,0,0,0,1,0,0V0A0,0,0,0,1,0,0Z"/><path class="d" d="M1,.5H40A7.5,7.5,0,0,1,47.5,8V40A7.5,7.5,0,0,1,40,47.5H1A.5.5,0,0,1,.5,47V1A.5.5,0,0,1,1,.5Z"/></g></g><g transform="translate(330.571 100.571)"><g transform="translate(0 10.359)"><path class="b" d="M25.646,172.871H10.313c-.515-1.565-2.573-2.511-4.6-2.113a3.464,3.464,0,0,0-2.732,2.113H.95a.759.759,0,1,0,0,1.469H2.984c.515,1.565,2.573,2.511,4.6,2.113a3.464,3.464,0,0,0,2.732-2.113H25.646a.759.759,0,1,0,0-1.469Zm-19,2.2a1.518,1.518,0,1,1,0-2.939,1.518,1.518,0,1,1,0,2.939Z" transform="translate(0 -170.667)"/></g><g transform="translate(0 0)"><path class="b" d="M25.646,2.2H22.661C22.146.638,20.088-.308,18.064.091A3.464,3.464,0,0,0,15.332,2.2H.95A.863.863,0,0,0,0,2.938a.863.863,0,0,0,.95.735H15.332c.515,1.565,2.573,2.511,4.6,2.113a3.464,3.464,0,0,0,2.732-2.113h2.984a.863.863,0,0,0,.95-.735A.863.863,0,0,0,25.646,2.2ZM19,4.408a1.727,1.727,0,0,1-1.9-1.469A1.727,1.727,0,0,1,19,1.469a1.727,1.727,0,0,1,1.9,1.469A1.727,1.727,0,0,1,19,4.408Z" transform="translate(0 0)"/></g><g transform="translate(0 20.718)"><path class="b" d="M25.646,343.538H20.762c-.515-1.565-2.573-2.511-4.6-2.113a3.463,3.463,0,0,0-2.732,2.113H.95a.759.759,0,1,0,0,1.469H13.433c.515,1.565,2.573,2.511,4.6,2.113a3.463,3.463,0,0,0,2.732-2.113h4.884a.759.759,0,1,0,0-1.469Zm-8.549,2.2a1.518,1.518,0,1,1,0-2.939,1.518,1.518,0,1,1,0,2.939Z" transform="translate(0 -341.334)"/></g></g></g></svg>