<svg xmlns="http://www.w3.org/2000/svg" width="24" height="27.429" viewBox="0 0 24 27.429"><defs><style>.a{fill:#fe5d1f;}</style></defs><path class="a" d="M24,15.086c0-2.854-2.785-8.739-6.666-12.343a32,32,0,0,0-3.012,3.213A41.565,41.565,0,0,0,9,0C3.736,4.884,0,11.248,0,15.086A12.175,12.175,0,0,0,12,27.429c.028,0,.056,0,.085,0s.032,0,.049,0c.1,0,.2-.019.3-.023A12.18,12.18,0,0,0,24,15.086Zm-22.286,0c0-2.69,2.545-7.9,7.288-12.7a39.092,39.092,0,0,1,3.932,4.579l1.308,1.8L15.649,7.04q.792-.97,1.66-1.872c3.033,3.395,4.976,8,4.976,9.918A10.778,10.778,0,0,1,19.271,22.6a7.512,7.512,0,0,0-.43-6q-.274-.523-.58-1.028l-1.212-2L15.5,15.325l-1.385,1.58c-1.336-1.7-3.177-4.045-3.413-4.315L9.386,11.07,8.1,12.617c-2.3,2.758-3.81,4.752-3.81,7.227a7.892,7.892,0,0,0,.523,2.828A10.766,10.766,0,0,1,1.714,15.086ZM12.082,25.71C8.725,25.687,6,23.457,6,19.843c0-1.81,1.139-3.4,3.412-6.129.325.374,4.633,5.876,4.633,5.876l2.748-3.135q.278.46.529.936a5.592,5.592,0,0,1-1.568,7.191,6.293,6.293,0,0,1-3.341,1.111C12.3,25.7,12.194,25.709,12.082,25.71Z"/></svg>