<svg xmlns="http://www.w3.org/2000/svg" width="14.051" height="14.05" viewBox="0 0 14.051 14.05"><defs><style>.a{fill:#fff;}</style></defs><path class="a" d="M6.021,4.968,9.205,1.783l.657-.657a.248.248,0,0,0,0-.351l-.7-.7a.248.248,0,0,0-.351,0L4.968,3.914,1.127.073a.248.248,0,0,0-.351,0l-.7.7a.248.248,0,0,0,0,.351L3.914,4.968.073,8.808a.248.248,0,0,0,0,.351l.7.7a.248.248,0,0,0,.351,0L4.968,6.021,8.152,9.205l.657.657a.248.248,0,0,0,.351,0l.7-.7a.248.248,0,0,0,0-.351Z" transform="translate(7.025) rotate(45)"/></svg>