<svg xmlns="http://www.w3.org/2000/svg" width="14.5" height="14.5" viewBox="0 0 14.5 14.5">
  <path id="Icon_awesome-blender" data-name="Icon awesome-blender" d="M2.719,10.875h7.25a1.812,1.812,0,0,1,1.813,1.813v.906a.906.906,0,0,1-.906.906H1.813a.906.906,0,0,1-.906-.906v-.906a1.812,1.812,0,0,1,1.812-1.813Zm3.625,2.719a.906.906,0,1,0-.906-.906A.906.906,0,0,0,6.344,13.594ZM5.211,1.813H.494L0,0H13.141A1.359,1.359,0,0,1,14.5,1.359V5.891A1.359,1.359,0,0,1,13.141,7.25H10.216L9.969,9.969H2.719l-.5-1.813H5.211a.226.226,0,0,0,.227-.227V7.477a.226.226,0,0,0-.227-.227H1.977L1.483,5.438H5.211a.226.226,0,0,0,.227-.227V4.758a.226.226,0,0,0-.227-.227H1.236L.741,2.719h4.47a.226.226,0,0,0,.227-.227V2.039a.226.226,0,0,0-.227-.226Zm7.477,3.625V1.813H10.71l-.33,3.625Z" fill="#7dbd3b"/>
</svg>
