<svg xmlns="http://www.w3.org/2000/svg" width="23.69" height="23.691" viewBox="0 0 23.69 23.691"><defs><style>.a{fill:#7dbd3b;stroke:#7dbd3b;stroke-width:0.5px;}</style></defs><path class="a" d="M23.052,7.886,18.695.339a.678.678,0,0,0-.926-.248L15.253,1.543A.678.678,0,0,0,15,2.469l.054.093L2.44,11.459a.678.678,0,0,0-.2.893l.024.042L.34,13.508a.678.678,0,0,0-.248.926L1.544,16.95a.678.678,0,0,0,.926.248L4.4,16.084l.024.042a.678.678,0,0,0,.872.276l3.9-1.8a2.881,2.881,0,0,0,.694.727l-2.58,6.9a.678.678,0,1,0,1.27.475l2.563-6.855a2.864,2.864,0,0,0,.866,0L14.568,22.7a.678.678,0,0,0,1.27-.475l-2.58-6.9a2.851,2.851,0,0,0,1.058-3.1l4.993-2.308.053.093a.678.678,0,0,0,.926.248L22.8,8.812a.678.678,0,0,0,.248-.926Zm-20.673,7.8L1.6,14.343l1.341-.774.775,1.342Zm9.192-1.16a1.5,1.5,0,1,1,1.5-1.5A1.5,1.5,0,0,1,11.572,14.524Zm2.064-3.472a2.855,2.855,0,0,0-4.921,1.972,2.878,2.878,0,0,0,.015.3L5.287,14.912l-1.559-2.7,12.011-8.47,2.889,5Zm6.561-2.3L16.518,2.378,17.859,1.6l3.679,6.373Z" transform="translate(0.252 0.296)"/></svg>