<svg xmlns="http://www.w3.org/2000/svg" width="12.784" height="20.46" viewBox="0 0 12.784 20.46">
  <path id="Moderate" d="M3.739,13.892a.014.014,0,0,1,0-.008L2.92,15.922a1.55,1.55,0,0,1-.355.535L.232,18.794a.957.957,0,0,0,.675,1.634.943.943,0,0,0,.675-.28l2.333-2.337a3.494,3.494,0,0,0,.775-1.178l.539-1.346L3.783,13.948l-.044-.056ZM8.252,3.835A1.917,1.917,0,1,0,6.339,1.917,1.914,1.914,0,0,0,8.252,3.835Zm4.182,6.986-1.17-1.154a.33.33,0,0,1-.08-.128l-.515-1.55A4.2,4.2,0,0,0,6.683,5.113,9.048,9.048,0,0,0,2.86,6.151,3.675,3.675,0,0,0,.935,7.941L.359,9.183A.958.958,0,0,0,2.1,9.99l.559-1.214a1.746,1.746,0,0,1,.911-.839c.867-.348,1.322-.539,1.77-.683l-.791,3.164a2.338,2.338,0,0,0,.6,2.181L8.3,15.514a1.592,1.592,0,0,1,.471.815l.779,3.387a.955.955,0,1,0,1.861-.431L10.629,15.9A3.526,3.526,0,0,0,9.59,14.108L7.441,12.127,8.488,7.941c.3.387.3.5.871,2.213a2.289,2.289,0,0,0,.551.887L11.08,12.2a.966.966,0,0,0,1.354-1.378Z" transform="translate(0.05)" fill="#fe5d1f"/>
</svg>
