<svg xmlns="http://www.w3.org/2000/svg" width="26.288" height="24.97" viewBox="0 0 26.288 24.97">
  <g id="Extreme" transform="translate(-1073.438 -975.54)">
    <path id="running-regular" d="M6.153,15.453,5.185,17.71a.39.39,0,0,1-.358.237H1.171a1.17,1.17,0,1,0,0,2.341H4.826a2.73,2.73,0,0,0,2.512-1.655L8,17.091l-.466-.281A4.274,4.274,0,0,1,6.153,15.453Zm7.12-10.771A2.341,2.341,0,1,0,10.93,2.341,2.342,2.342,0,0,0,13.272,4.682Zm5.848,7.05-2.36-.008a.388.388,0,0,1-.371-.276l-.68-2.239a4.3,4.3,0,0,0-3.161-2.937L8.731,5.407A4.266,4.266,0,0,0,5.158,6.2L2.8,8.02A1.171,1.171,0,1,0,4.232,9.872L6.592,8.05a1.964,1.964,0,0,1,1.624-.36l.726.164L7.22,12.115A2.721,2.721,0,0,0,8.34,15.475l4.086,2.467a.39.39,0,0,1,.173.441l-1.624,5.095a1.17,1.17,0,0,0,.8,1.447,1.187,1.187,0,0,0,.322.045,1.172,1.172,0,0,0,1.126-.849l1.624-5.095a2.737,2.737,0,0,0-1.214-3.089l-2.529-1.526L13.154,9.3a1.919,1.919,0,0,1,.313.589l.681,2.24a2.718,2.718,0,0,0,2.6,1.936l2.36.008h0a1.171,1.171,0,0,0,0-2.341Z" transform="translate(1073.438 975.54)" fill="#fe5d1f" opacity="0.45"/>
    <path id="running-regular-2" data-name="running-regular" d="M6.153,15.453,5.185,17.71a.39.39,0,0,1-.358.237H1.171a1.17,1.17,0,1,0,0,2.341H4.826a2.73,2.73,0,0,0,2.512-1.655L8,17.091l-.466-.281A4.274,4.274,0,0,1,6.153,15.453Zm7.12-10.771A2.341,2.341,0,1,0,10.93,2.341,2.342,2.342,0,0,0,13.272,4.682Zm5.848,7.05-2.36-.008a.388.388,0,0,1-.371-.276l-.68-2.239a4.3,4.3,0,0,0-3.161-2.937L8.731,5.407A4.266,4.266,0,0,0,5.158,6.2L2.8,8.02A1.171,1.171,0,1,0,4.232,9.872L6.592,8.05a1.964,1.964,0,0,1,1.624-.36l.726.164L7.22,12.115A2.721,2.721,0,0,0,8.34,15.475l4.086,2.467a.39.39,0,0,1,.173.441l-1.624,5.095a1.17,1.17,0,0,0,.8,1.447,1.187,1.187,0,0,0,.322.045,1.172,1.172,0,0,0,1.126-.849l1.624-5.095a2.737,2.737,0,0,0-1.214-3.089l-2.529-1.526L13.154,9.3a1.919,1.919,0,0,1,.313.589l.681,2.24a2.718,2.718,0,0,0,2.6,1.936l2.36.008h0a1.171,1.171,0,0,0,0-2.341Z" transform="translate(1079.438 975.54)" fill="#fe5d1f"/>
  </g>
</svg>
