<svg xmlns="http://www.w3.org/2000/svg" width="24.384" height="25.335" viewBox="0 0 24.384 25.335">
  <path id="ski-lift-regular" d="M4.589,29.37a2.477,2.477,0,1,0-2.477-2.477A2.477,2.477,0,0,0,4.589,29.37ZM9.931,41.895a1.24,1.24,0,0,0-.784-2.353l-.949.32a2.064,2.064,0,0,1-2.513-1.068L2.4,31.931A1.238,1.238,0,0,0,.169,33L3.45,39.862a4.557,4.557,0,0,0,4.1,2.58A6.192,6.192,0,0,0,9.931,41.895Zm6.212.521V35.424a1.242,1.242,0,0,0-1.538-1.2L9.782,35.429,7.733,31.018a1.648,1.648,0,0,0-2.193-.8,1.7,1.7,0,0,0-.81,2.193L7.171,37.6a1.23,1.23,0,0,0,1.424.681l5.067-1.264v6.321C5.164,46.476,23.532,39.681,16.144,42.416Z" transform="matrix(0.914, 0.407, -0.407, 0.914, 17.928, -22.325)" fill="#fe5d1f"/>
</svg>
