<svg xmlns="http://www.w3.org/2000/svg" width="24.704" height="22.572" viewBox="0 0 24.704 22.572"><defs><style>.a{fill:#7dbd3b;stroke:#7dbd3b;stroke-linecap:square;stroke-width:0.5px;}</style></defs><path class="a" d="M23.409,29.16H18.722L15.31,20.94a.8.8,0,0,0-1.47.61L17,29.16H7.206l3.158-7.61a.8.8,0,0,0-1.47-.61L5.483,29.16H.8a.8.8,0,1,0,0,1.591h.478l1.56,8.532a3.9,3.9,0,0,0,3.839,3.2H17.531a3.9,3.9,0,0,0,3.839-3.2l1.56-8.532h.478a.8.8,0,1,0,0-1.591ZM19.8,39a2.31,2.31,0,0,1-2.273,1.9H6.673A2.31,2.31,0,0,1,4.4,39L2.9,30.789H21.306Z" transform="translate(0.25 -20.162)"/></svg>