<svg xmlns="http://www.w3.org/2000/svg" width="24" height="21.333" viewBox="0 0 24 21.333"><defs><style>.a{fill:#7dbd3b;}</style></defs><path class="a" d="M23.972,19.018,16.625.334A.5.5,0,0,0,16.152,0a1.537,1.537,0,0,0-.479.138c-.269.094-.409.343-.261.766A12.906,12.906,0,0,1,12.266,2,.569.569,0,0,0,12,1.62V1.333A1.333,1.333,0,0,0,10.666,0h-4A1.3,1.3,0,0,0,6,.2,1.3,1.3,0,0,0,5.333,0h-4A1.333,1.333,0,0,0,0,1.333V20a1.333,1.333,0,0,0,1.333,1.333h4a1.3,1.3,0,0,0,.667-.2,1.294,1.294,0,0,0,.667.2h4A1.333,1.333,0,0,0,12,20V4.953L18.31,21a.5.5,0,0,0,.473.334,1.543,1.543,0,0,0,.479-.138c.268-.094.41-.343.261-.766a12.906,12.906,0,0,1,3.146-1.1c.152.433.422.527.682.436l.315-.11a.5.5,0,0,0,.307-.637ZM5.333,20h-4V17.333h4Zm0-4h-4V5.333h4Zm0-12h-4V1.333h4Zm5.333,16h-4V17.333h4Zm0-4h-4V5.333h4Zm0-12h-4V1.333h4Zm8.465,15.314L12.658,3.12a15.133,15.133,0,0,0,3.146-1.1l6.473,16.194a15.122,15.122,0,0,0-3.146,1.1Z"/></svg>