<svg xmlns="http://www.w3.org/2000/svg" width="24" height="27.431" viewBox="0 0 24 27.431"><defs><style>.a{fill:#7dbd3b;}</style></defs><path class="a" d="M21.429,3.429H18.857V.643A.645.645,0,0,0,18.214,0h-.429a.645.645,0,0,0-.643.643V3.429H6.857V.643A.645.645,0,0,0,6.214,0H5.786a.645.645,0,0,0-.643.643V3.429H2.571A2.572,2.572,0,0,0,0,6V24.86a2.572,2.572,0,0,0,2.571,2.572H21.429A2.572,2.572,0,0,0,24,24.86V6A2.572,2.572,0,0,0,21.429,3.429ZM2.571,5.143H21.429A.86.86,0,0,1,22.286,6V8.572H1.714V6A.86.86,0,0,1,2.571,5.143ZM21.429,25.717H2.571a.86.86,0,0,1-.857-.857V10.287H22.286V24.86A.86.86,0,0,1,21.429,25.717Zm-13.5-8.572H5.786a.645.645,0,0,1-.643-.643V14.359a.645.645,0,0,1,.643-.643H7.929a.645.645,0,0,1,.643.643V16.5A.645.645,0,0,1,7.929,17.145Zm5.143,0H10.929a.645.645,0,0,1-.643-.643V14.359a.645.645,0,0,1,.643-.643h2.143a.645.645,0,0,1,.643.643V16.5A.645.645,0,0,1,13.071,17.145Zm5.143,0H16.071a.645.645,0,0,1-.643-.643V14.359a.645.645,0,0,1,.643-.643h2.143a.645.645,0,0,1,.643.643V16.5A.645.645,0,0,1,18.214,17.145Zm-5.143,5.143H10.929a.645.645,0,0,1-.643-.643V19.5a.645.645,0,0,1,.643-.643h2.143a.645.645,0,0,1,.643.643v2.143A.645.645,0,0,1,13.071,22.288Zm-5.143,0H5.786a.645.645,0,0,1-.643-.643V19.5a.645.645,0,0,1,.643-.643H7.929a.645.645,0,0,1,.643.643v2.143A.645.645,0,0,1,7.929,22.288Zm10.286,0H16.071a.645.645,0,0,1-.643-.643V19.5a.645.645,0,0,1,.643-.643h2.143a.645.645,0,0,1,.643.643v2.143A.645.645,0,0,1,18.214,22.288Z"/></svg>