<svg xmlns="http://www.w3.org/2000/svg" width="22.712" height="20.642" viewBox="0 0 22.712 20.642">
  <g id="cardiogram" transform="translate(0.15 -24.711)">
    <path id="Path_1265" data-name="Path 1265" d="M22.411,31.358a6.617,6.617,0,0,0-11.2-4.572A6.618,6.618,0,0,0,0,31.358a7.12,7.12,0,0,0,2.288,5.2l8.454,8.408a.657.657,0,0,0,.927,0l8.454-8.408A7.12,7.12,0,0,0,22.411,31.358Zm-11.2,12.214L3.993,36.4H6.3a.657.657,0,0,0,.563-.319l.5-.84L9.25,38.2a.657.657,0,0,0,1.148-.071L13,32.642l1.837,3.41a.657.657,0,0,0,.578.345h3.009Zm8.484-8.487H15.8l-2.266-4.208a.658.658,0,0,0-1.172.03L9.72,36.487l-1.814-2.85a.657.657,0,0,0-1.118.015l-.86,1.433H2.723a5.588,5.588,0,0,1-1.408-3.7c.082-4.1,5.3-7.358,9.427-3.235a.657.657,0,0,0,.929,0c5.266-5.265,12.506,1.541,8.019,6.935Z" transform="translate(0 0)" fill="#7dbd3b" stroke="#7dbd3b" stroke-width="0.3"/>
  </g>
</svg>
