<svg xmlns="http://www.w3.org/2000/svg" width="16" height="16" viewBox="0 0 16 16">
  <g id="bag_green" data-name="bag green" transform="translate(0.209)">
    <rect id="Rectangle_16" data-name="Rectangle 16" width="16" height="16" transform="translate(-0.209)" fill="none"/>
    <path id="Path_54" data-name="Path 54" d="M13.357,4.673H12.02a2.673,2.673,0,0,0-5.347,0H5.337A1.341,1.341,0,0,0,4,6.01v8.02a1.341,1.341,0,0,0,1.337,1.337h8.02a1.341,1.341,0,0,0,1.337-1.337V6.01A1.341,1.341,0,0,0,13.357,4.673ZM9.347,3.337a1.341,1.341,0,0,1,1.337,1.337H8.01A1.341,1.341,0,0,1,9.347,3.337Z" transform="translate(-1.456 -0.663)" fill="#7dbd3b"/>
  </g>
</svg>
