<svg version="1.2" baseProfile="tiny-ps" xmlns="http://www.w3.org/2000/svg" viewBox="0 0 48 48" width="48" height="48">
	<title>cart-white-svg</title>
	<style>
		tspan { white-space:pre }
		.shp0 { fill: #fd5109 } 
		.shp1 { fill: #ffffff } 
	</style>
	<g id="Layer" style="opacity: 0">
		<path id="Layer" class="shp0" d="M31 48L-11 48C-11.79 48 -12.57 47.84 -13.3 47.54C-14.02 47.24 -14.69 46.8 -15.24 46.24C-15.8 45.69 -16.24 45.02 -16.54 44.3C-16.84 43.57 -17 42.79 -17 42L-17 6C-17 5.21 -16.84 4.43 -16.54 3.7C-16.24 2.98 -15.8 2.31 -15.24 1.76C-14.69 1.2 -14.02 0.76 -13.3 0.46C-12.57 0.16 -11.79 0 -11 0L31 0L31 48Z" />
		<path id="Layer" fill-rule="evenodd" class="shp1" d="M21.43 22.14C21.43 28.3 15.29 33.29 7.72 33.29C7.3 33.29 6.88 33.27 6.46 33.24C6.04 33.21 5.62 33.16 5.2 33.09C4.78 33.03 4.37 32.95 3.96 32.85C3.55 32.76 3.14 32.65 2.74 32.52C2.2 32.91 1.64 33.26 1.04 33.56C0.45 33.87 -0.16 34.13 -0.79 34.34C-1.42 34.55 -2.07 34.71 -2.73 34.82C-3.38 34.93 -4.05 34.99 -4.71 35C-4.96 35 -5.21 34.93 -5.42 34.79C-5.63 34.65 -5.8 34.46 -5.9 34.22C-6 33.99 -6.03 33.74 -5.98 33.49C-5.94 33.24 -5.82 33.01 -5.65 32.83C-5.39 32.54 -5.14 32.24 -4.9 31.93C-4.67 31.62 -4.45 31.3 -4.24 30.98C-4.03 30.65 -3.84 30.31 -3.66 29.97C-3.48 29.62 -3.31 29.27 -3.16 28.91C-3.6 28.46 -4 27.98 -4.35 27.45C-4.69 26.93 -4.99 26.38 -5.23 25.8C-5.48 25.22 -5.66 24.62 -5.79 24.01C-5.92 23.39 -5.99 22.77 -6 22.14C-6 15.99 0.14 11 7.72 11C15.29 11 21.43 15.99 21.43 22.14ZM19.71 22.14C19.71 16.95 14.33 12.72 7.71 12.72C1.09 12.72 -4.29 16.94 -4.29 22.14C-4.28 22.66 -4.22 23.18 -4.12 23.69C-4.01 24.19 -3.85 24.69 -3.65 25.17C-3.45 25.65 -3.2 26.1 -2.91 26.53C-2.62 26.96 -2.29 27.36 -1.92 27.73L-1.19 28.51L-1.57 29.51C-1.7 29.85 -1.85 30.18 -2.01 30.5C-2.17 30.83 -2.34 31.15 -2.52 31.46C-2.7 31.77 -2.9 32.08 -3.1 32.37C-3.31 32.67 -3.53 32.96 -3.75 33.24C-3.26 33.19 -2.77 33.1 -2.29 32.98C-1.8 32.87 -1.33 32.72 -0.87 32.54C-0.4 32.36 0.05 32.15 0.49 31.91C0.92 31.68 1.34 31.41 1.75 31.12L2.45 30.63L3.26 30.88C3.62 31 3.98 31.1 4.35 31.18C4.72 31.27 5.09 31.34 5.46 31.4C5.84 31.46 6.21 31.5 6.59 31.53C6.96 31.56 7.34 31.57 7.72 31.57C14.33 31.57 19.71 27.34 19.71 22.14ZM9 23.86C9.06 23.86 9.12 23.87 9.17 23.89C9.22 23.91 9.27 23.94 9.31 23.98C9.35 24.02 9.38 24.07 9.4 24.12C9.42 24.17 9.43 24.23 9.43 24.29L9.43 25.14C9.43 25.2 9.42 25.26 9.4 25.31C9.38 25.36 9.35 25.41 9.31 25.45C9.27 25.49 9.22 25.52 9.17 25.54C9.12 25.56 9.06 25.57 9 25.57L1.29 25.57C1.23 25.57 1.18 25.56 1.12 25.54C1.07 25.52 1.03 25.49 0.99 25.45C0.95 25.41 0.91 25.36 0.89 25.31C0.87 25.26 0.86 25.2 0.86 25.14L0.86 24.29C0.86 24.23 0.87 24.17 0.89 24.12C0.91 24.07 0.95 24.02 0.99 23.98C1.03 23.94 1.07 23.91 1.12 23.89C1.18 23.87 1.23 23.86 1.29 23.86L9 23.86ZM14.15 18.71C14.2 18.71 14.26 18.73 14.31 18.75C14.36 18.77 14.41 18.8 14.45 18.84C14.49 18.88 14.52 18.93 14.54 18.98C14.56 19.03 14.57 19.09 14.58 19.14L14.58 20C14.57 20.06 14.56 20.11 14.54 20.16C14.52 20.22 14.49 20.26 14.45 20.3C14.41 20.34 14.36 20.37 14.31 20.4C14.26 20.42 14.2 20.43 14.15 20.43L1.29 20.43C1.23 20.43 1.18 20.42 1.12 20.4C1.07 20.37 1.03 20.34 0.99 20.3C0.95 20.26 0.91 20.22 0.89 20.16C0.87 20.11 0.86 20.06 0.86 20L0.86 19.14C0.86 19.09 0.87 19.03 0.89 18.98C0.91 18.93 0.95 18.88 0.99 18.84C1.03 18.8 1.07 18.77 1.12 18.75C1.18 18.73 1.23 18.71 1.29 18.71L14.15 18.71Z" />
	</g>
	<g id="Layer">
		<g id="Layer">
			<path id="Layer" class="shp1" d="M6 0.5L47.5 0.5L47.5 47.5L6 47.5C2.97 47.5 0.5 45.03 0.5 42L0.5 6C0.5 2.97 2.97 0.5 6 0.5Z" />
			<path id="Layer" fill-rule="evenodd" class="shp0" d="M48 48L6 48C2.69 48 0 45.31 0 42L0 6C0 2.69 2.69 0 6 0L48 0L48 48ZM47 47L47 1L6 1C3.24 1 1 3.24 1 6L1 42C1 44.76 3.24 47 6 47L47 47Z" />
		</g>
		<path id="Layer" fill-rule="evenodd" class="shp0" d="M36.88 15C37.04 15 37.21 15.04 37.36 15.11C37.51 15.18 37.64 15.29 37.74 15.41C37.85 15.54 37.92 15.69 37.96 15.86C38 16.02 38.01 16.19 37.97 16.35L35.94 26.1C35.92 26.23 35.87 26.35 35.8 26.46C35.74 26.57 35.65 26.66 35.55 26.75C35.45 26.83 35.34 26.89 35.22 26.93C35.1 26.98 34.97 27 34.84 27L19.31 27L19.87 30L33.75 30C33.87 30 34 30.02 34.11 30.06C34.23 30.1 34.34 30.16 34.44 30.24C34.54 30.32 34.62 30.41 34.69 30.51C34.76 30.62 34.81 30.73 34.84 30.85C35.66 31.65 35.95 32.85 35.6 33.94C35.24 35.02 34.29 35.82 33.16 35.97C32.02 36.13 30.9 35.63 30.26 34.68C29.62 33.72 29.57 32.49 30.15 31.5L23.35 31.5C23.91 32.48 23.88 33.69 23.26 34.64C22.65 35.58 21.55 36.1 20.43 35.98C19.31 35.86 18.35 35.12 17.94 34.07C17.54 33.01 17.77 31.82 18.53 30.98L15.25 13.5L11.56 13.5C11.49 13.5 11.42 13.49 11.35 13.46C11.28 13.43 11.22 13.39 11.17 13.34C11.11 13.28 11.07 13.22 11.04 13.15C11.01 13.08 11 13.01 11 12.94L11 12.56C11 12.49 11.01 12.42 11.04 12.35C11.07 12.28 11.11 12.22 11.17 12.16C11.22 12.11 11.28 12.07 11.35 12.04C11.42 12.01 11.49 12 11.56 12L15.56 12C15.69 12 15.82 12.02 15.95 12.07C16.07 12.11 16.18 12.18 16.28 12.26C16.38 12.34 16.47 12.44 16.53 12.55C16.6 12.67 16.65 12.79 16.67 12.92L17.06 15L36.88 15ZM22.14 32.43C22.06 32.24 21.95 32.08 21.81 31.94C21.67 31.8 21.51 31.69 21.32 31.61C21.14 31.54 20.95 31.5 20.75 31.5C20.14 31.5 19.6 31.87 19.36 32.43C19.13 32.99 19.26 33.63 19.69 34.06C20.12 34.49 20.76 34.62 21.32 34.39C21.88 34.15 22.25 33.61 22.25 33C22.25 32.8 22.21 32.61 22.14 32.43ZM33.32 34.39C33.51 34.31 33.67 34.2 33.81 34.06C33.95 33.92 34.06 33.76 34.14 33.57C34.21 33.39 34.25 33.2 34.25 33C34.25 32.39 33.88 31.85 33.32 31.61C32.76 31.38 32.12 31.51 31.69 31.94C31.26 32.37 31.13 33.01 31.36 33.57C31.6 34.13 32.14 34.5 32.75 34.5C32.95 34.5 33.14 34.46 33.32 34.39ZM36.41 16.5L17.34 16.5L19.03 25.5L34.54 25.5L36.41 16.5Z" />
	</g>
</svg>