<svg xmlns="http://www.w3.org/2000/svg" width="22.421" height="22.564" viewBox="0 0 22.421 22.564"><defs><style>.a{fill:#7dbd3b;stroke:#7dbd3b;stroke-width:0.5px;}</style></defs><path class="a" d="M22.888,8.04a5.12,5.12,0,0,0-5.113-5.115q-.184,0-.37.014a6.573,6.573,0,0,0-10.953,0q-.186-.014-.37-.014A5.115,5.115,0,0,0,5.352,13.1v7.069a1.9,1.9,0,0,0,1.893,1.893h9.364A1.9,1.9,0,0,0,18.5,20.171V13.1A5.122,5.122,0,0,0,22.888,8.04ZM16.609,20.608H7.245a.443.443,0,0,1-.437-.437V13.1a5.032,5.032,0,0,0,2-.739,6.536,6.536,0,0,0,6.234,0,5.034,5.034,0,0,0,2,.739v7.069A.443.443,0,0,1,16.609,20.608Zm1.165-8.91a3.628,3.628,0,0,1-1.4-.28,6.552,6.552,0,0,0,1.892-3.082.728.728,0,1,0-1.4-.389A5.118,5.118,0,0,1,7,7.948a.728.728,0,1,0-1.4.389,6.551,6.551,0,0,0,1.892,3.082,3.659,3.659,0,1,1-1.4-7.038,3.711,3.711,0,0,1,.624.054.729.729,0,0,0,.758-.361,5.117,5.117,0,0,1,8.93,0,.728.728,0,0,0,.758.361,3.71,3.71,0,0,1,.624-.054,3.659,3.659,0,0,1,0,7.318Z" transform="translate(-0.717 0.25)"/></svg>