<svg xmlns="http://www.w3.org/2000/svg" width="26" height="26" viewBox="0 0 26 26"><defs><style>.a{fill:#7dbd3b;}.b{fill:#fff;}</style></defs><g transform="translate(-1130 -142)"><rect class="a" width="26" height="26" rx="13" transform="translate(1130 142)"/><path class="b" d="M6,100.953l3.175-3.175.655-.655a.248.248,0,0,0,0-.35l-.7-.7a.248.248,0,0,0-.35,0L4.953,99.9l-3.829-3.83a.248.248,0,0,0-.35,0l-.7.7a.248.248,0,0,0,0,.35l3.83,3.83-3.83,3.829a.248.248,0,0,0,0,.35l.7.7a.248.248,0,0,0,.35,0L4.953,102l3.175,3.175.655.655a.248.248,0,0,0,.35,0l.7-.7a.248.248,0,0,0,0-.35Z" transform="translate(1138.667 54.667)"/></g></svg>