<svg id="comm_2" xmlns="http://www.w3.org/2000/svg" width="17" height="17" viewBox="0 0 17 17">
  <g id="Group_6" data-name="Group 6">
    <g id="Group_5" data-name="Group 5">
      <g id="Path_22" data-name="Path 22" fill="#7dbd3b">
        <path d="M 8.5 16.49992370605469 C 8.443380355834961 16.49992370605469 8.391519546508789 16.47133445739746 8.361269950866699 16.42345428466797 L 6.962999820709229 14.20950412750244 L 6.815839767456055 13.97650337219238 L 6.540249824523926 13.97650337219238 L 0.6640599966049194 13.97650337219238 C 0.5735999941825867 13.97650337219238 0.5 13.90290355682373 0.5 13.81244373321533 L 0.5 0.6640637516975403 C 0.5 0.5736037492752075 0.5735999941825867 0.5000037550926208 0.6640599966049194 0.5000037550926208 L 16.33593940734863 0.5000037550926208 C 16.42639923095703 0.5000037550926208 16.5 0.5736037492752075 16.5 0.6640637516975403 L 16.5 13.81244373321533 C 16.5 13.90290355682373 16.42639923095703 13.97650337219238 16.33593940734863 13.97650337219238 L 10.45975017547607 13.97650337219238 L 10.18416023254395 13.97650337219238 L 10.03699970245361 14.20951366424561 L 8.63871955871582 16.42348289489746 C 8.608499526977539 16.47133445739746 8.55663013458252 16.49992370605469 8.5 16.49992370605469 Z" stroke="none"/>
        <path d="M 1 1.000003814697266 L 1 13.47650337219238 L 7.09142017364502 13.47650337219238 L 8.500001907348633 15.70677661895752 L 9.90857982635498 13.47650337219238 L 16 13.47650337219238 L 16 1.000003814697266 L 1 1.000003814697266 M 0.6640605926513672 3.814697265625e-06 L 16.33593940734863 3.814697265625e-06 C 16.70269966125488 3.814697265625e-06 17 0.2973041534423828 17 0.6640529632568359 L 17 13.81244373321533 C 17 14.17920398712158 16.70269966125488 14.47650337219238 16.33593940734863 14.47650337219238 L 10.45975017547607 14.47650337219238 L 9.061470031738281 16.69047355651855 C 8.939780235290527 16.88311386108398 8.727840423583984 16.99992370605469 8.5 16.99992370605469 C 8.272159576416016 16.99992370605469 8.060219764709473 16.88311386108398 7.938540458679199 16.69047355651855 L 6.540249824523926 14.47650337219238 L 0.6640605926513672 14.47650337219238 C 0.2973003387451172 14.47650337219238 0 14.17920398712158 0 13.81244373321533 L 0 0.6640529632568359 C 0 0.2973041534423828 0.2973003387451172 3.814697265625e-06 0.6640605926513672 3.814697265625e-06 Z" stroke="none" fill="#8ac34f"/>
      </g>
    </g>
  </g>
</svg>
