<svg xmlns="http://www.w3.org/2000/svg" width="17" height="17" viewBox="0 0 17 17"><defs><style>.a{fill:#7dbd3b;}.b{fill:#fff;}</style></defs><g transform="translate(-314.09 -865)"><g transform="translate(314.09 865)"><path class="a" d="M16.336,0H.664A.664.664,0,0,0,0,.664V13.812a.664.664,0,0,0,.664.664H6.54l1.4,2.214a.664.664,0,0,0,1.123,0l1.4-2.214h5.876A.664.664,0,0,0,17,13.812V.664A.664.664,0,0,0,16.336,0ZM1.328,13.148Z"/></g><circle class="b" cx="1" cy="1" r="1" transform="translate(324.649 871.47)"/><ellipse class="b" cx="1.5" cy="1" rx="1.5" ry="1" transform="translate(321.284 871.47)"/><ellipse class="b" cx="1.5" cy="1" rx="1.5" ry="1" transform="translate(318.055 871.47)"/></g></svg>