<svg xmlns="http://www.w3.org/2000/svg" width="17" height="17" viewBox="0 0 17 17">
  <g id="Comm_4" transform="translate(-182 -184)">
    <g id="comment_1_" data-name="comment (1)" transform="translate(182 184)">
      <g id="Group_6" data-name="Group 6">
        <g id="Group_5" data-name="Group 5">
          <path id="Path_22" data-name="Path 22" d="M16.336,0H.664A.664.664,0,0,0,0,.664V13.812a.664.664,0,0,0,.664.664H6.54l1.4,2.214a.664.664,0,0,0,1.123,0l1.4-2.214h5.876A.664.664,0,0,0,17,13.812V.664A.664.664,0,0,0,16.336,0ZM1.328,13.148Z" fill="#7dbd3b"/>
        </g>
      </g>
    </g>
    <circle id="Ellipse_514" data-name="Ellipse 514" cx="1" cy="1" r="1" transform="translate(192.56 190.47)" fill="#fff"/>
    <circle id="Ellipse_515" data-name="Ellipse 515" cx="1" cy="1" r="1" transform="translate(189.5 190.47)" fill="#fff"/>
    <circle id="Ellipse_516" data-name="Ellipse 516" cx="1" cy="1" r="1" transform="translate(186.44 190.47)" fill="#fff"/>
  </g>
</svg>
