<svg xmlns="http://www.w3.org/2000/svg" width="13" height="13" viewBox="0 0 13 13"><defs><style>.a{fill:#fe5d1f;}.b{fill:#fff;}</style></defs><g transform="translate(-90 -633.25)"><rect class="a" width="13" height="13" rx="3" transform="translate(90 633.25)"/><path class="b" d="M2.269,10.752.1,8.007a.5.5,0,0,1,0-.6l.472-.6a.287.287,0,0,1,.472,0L2.5,8.662,5.637,4.7a.287.287,0,0,1,.472,0l.472.6a.5.5,0,0,1,0,.6L2.741,10.752A.287.287,0,0,1,2.269,10.752Z" transform="translate(93.285 631.898)"/></g></svg>