<svg xmlns="http://www.w3.org/2000/svg" width="42.175" height="38.304" viewBox="0 0 42.175 38.304"><defs><style>.a{fill:#ff928d;}.b{fill:#ea5e5e;}.c{fill:#d33737;}.d{fill:#f6f4f9;}.e{fill:#e9e4f2;}</style></defs><g transform="translate(0 0)"><path class="a" d="M42.175,35.658a20.177,20.177,0,0,1-3.291,10.658,37.333,37.333,0,0,1-7.154,8.209,56.26,56.26,0,0,1-10.361,7.211.615.615,0,0,1-.563,0,56.26,56.26,0,0,1-10.361-7.211,37.333,37.333,0,0,1-7.154-8.209A20.177,20.177,0,0,1,0,35.658a12.581,12.581,0,0,1,3.369-8.435,11.135,11.135,0,0,1,8.19-3.722,12.058,12.058,0,0,1,9.529,4.392A12.058,12.058,0,0,1,30.616,23.5h.074a11.141,11.141,0,0,1,8.115,3.722,12.581,12.581,0,0,1,3.369,8.435Z" transform="translate(0 -23.5)"/><path class="b" d="M75.585,72.363c0,4.736-2.389,9.552-7.1,14.312A53.367,53.367,0,0,1,58.41,94.46l0,0-.3.178a.616.616,0,0,1-.629,0A53.58,53.58,0,0,1,47.1,86.675C42.389,81.915,40,77.1,40,72.363c0-4.721,3.862-8.863,8.264-8.863a10.021,10.021,0,0,1,7.7,3.908,16.206,16.206,0,0,1,1.828,2.678,16.207,16.207,0,0,1,1.828-2.678,10.308,10.308,0,0,1,6.607-3.841,8.948,8.948,0,0,1,1.095-.067C71.724,63.5,75.585,67.642,75.585,72.363Z" transform="translate(-36.706 -60.205)"/><path class="c" d="M280.675,72.363c0,4.737-2.389,9.552-7.1,14.312A53.368,53.368,0,0,1,263.5,94.46c10.7-7.278,15.115-17.361,15.115-22.1a8.932,8.932,0,0,0-7.3-8.8,8.949,8.949,0,0,1,1.095-.067C276.814,63.5,280.675,67.642,280.675,72.363Z" transform="translate(-241.795 -60.205)"/><path class="d" d="M160.675,205.739a2.3,2.3,0,0,1-2.3,2.3,2.264,2.264,0,0,1-.867-.171,2.308,2.308,0,0,1-1.347-1.5,10.732,10.732,0,0,1-1.579-.105.618.618,0,0,1-.465-.382c-.607-1.55-1.241-3.182-1.713-4.395a47.276,47.276,0,0,1-2.6,7.522.617.617,0,0,1-.56.358l-.049,0a.617.617,0,0,1-.546-.446,34.55,34.55,0,0,0-1.934-5.138c-.525,1.264-.962,2.113-.986,2.159a.618.618,0,0,1-.493.331,12.286,12.286,0,0,1-2,0,.618.618,0,0,1,.112-1.231,11.6,11.6,0,0,0,1.433.024c.253-.519.778-1.646,1.28-3.01a.618.618,0,0,1,1.119-.09,32.29,32.29,0,0,1,2.145,4.988,45.439,45.439,0,0,0,2.311-7.7.618.618,0,0,1,1.183-.1c.012.031,1.185,3.06,2.311,5.938.221.019.558.04,1.024.048a2.311,2.311,0,0,1,1.351-1.521,2.3,2.3,0,0,1,3.167,2.13Z" transform="translate(-130.926 -184.314)"/><g transform="translate(7.893 6.213)"><ellipse class="c" cx="0.618" cy="0.618" rx="0.618" ry="0.618" transform="translate(3.048)"/><ellipse class="c" cx="0.618" cy="0.618" rx="0.618" ry="0.618" transform="translate(0 1.374)"/><ellipse class="c" cx="0.618" cy="0.618" rx="0.618" ry="0.618" transform="translate(22.106)"/><ellipse class="c" cx="0.618" cy="0.618" rx="0.618" ry="0.618" transform="translate(25.153 1.374)"/><ellipse class="c" cx="0.618" cy="0.618" rx="0.618" ry="0.618" transform="translate(12.577 23.525)"/><ellipse class="c" cx="0.618" cy="0.618" rx="0.618" ry="0.618" transform="translate(9.629 21.636)"/><ellipse class="c" cx="0.618" cy="0.618" rx="0.618" ry="0.618" transform="translate(15.524 21.636)"/></g><path class="b" d="M280.226,35.667a20.177,20.177,0,0,1-3.291,10.658,37.333,37.333,0,0,1-7.154,8.209,56.265,56.265,0,0,1-10.361,7.211c31.27-22.808,15.167-38.1,9.321-38.235a11.141,11.141,0,0,1,8.115,3.722A12.581,12.581,0,0,1,280.226,35.667Z" transform="translate(-238.051 -23.51)"/><path class="e" d="M325.877,257.98a2.3,2.3,0,0,1-2.3,2.3,2.262,2.262,0,0,1-.867-.171,2.244,2.244,0,0,0,0-4.26,2.3,2.3,0,0,1,3.167,2.13Z" transform="translate(-296.128 -236.555)"/></g></svg>