<svg xmlns="http://www.w3.org/2000/svg" width="24" height="21.001" viewBox="0 0 24 21.001"><defs><style>.a{fill:#7dbd3b;}</style></defs><path class="a" d="M55.913,41.274,45,32.367a1.508,1.508,0,0,0-1.893,0L32.192,41.274a.375.375,0,0,0-.054.527l.473.582a.375.375,0,0,0,.525.056l1.916-1.565V52.266a.75.75,0,0,0,.75.75h6a.75.75,0,0,0,.75-.75v-6l3,.014v6a.75.75,0,0,0,.75.75l6-.015a.75.75,0,0,0,.75-.75V40.874l1.916,1.565a.375.375,0,0,0,.527-.054l.473-.582a.375.375,0,0,0-.057-.528ZM51.548,51.522h0l-4.5.014V45.527a.752.752,0,0,0-.748-.75l-4.5-.013a.75.75,0,0,0-.752.75v6.007h-4.5V39.65l7.5-6.121,7.5,6.121Z" transform="translate(-32.054 -32.033)"/></svg>