<svg xmlns="http://www.w3.org/2000/svg" width="20.226" height="20.226" viewBox="0 0 20.226 20.226"><defs><style>.a{fill:#7dbd3b;}</style></defs><path class="a" d="M10.113,0A10.113,10.113,0,1,0,20.226,10.113,10.124,10.124,0,0,0,10.113,0Zm0,18.387a8.274,8.274,0,1,1,8.274-8.274A8.283,8.283,0,0,1,10.113,18.387Z" transform="translate(0)"/><path class="a" d="M146.228,70a1.226,1.226,0,1,0,1.226,1.226A1.227,1.227,0,0,0,146.228,70Z" transform="translate(-136.115 -65.71)"/><path class="a" d="M150.919,140a.919.919,0,0,0-.919.919v5.516a.919.919,0,1,0,1.839,0v-5.516A.919.919,0,0,0,150.919,140Z" transform="translate(-140.807 -131.419)"/></svg>