<svg xmlns="http://www.w3.org/2000/svg" xmlns:xlink="http://www.w3.org/1999/xlink" width="72" height="72" viewBox="0 0 72 72">
  <defs>
    <filter id="Rectangle_40" x="0" y="0" width="72" height="72" filterUnits="userSpaceOnUse">
      <feOffset dx="6" dy="6" input="SourceAlpha"/>
      <feGaussianBlur stdDeviation="4" result="blur"/>
      <feFlood flood-color="#ececec"/>
      <feComposite operator="in" in2="blur"/>
      <feComposite in="SourceGraphic"/>
    </filter>
  </defs>
  <g id="ingr_green" data-name="ingr green" transform="translate(-316 -86)">
    <g transform="matrix(1, 0, 0, 1, 316, 86)" filter="url(#Rectangle_40)">
      <path id="Rectangle_40-2" data-name="Rectangle 40" d="M0,0H40a8,8,0,0,1,8,8V40a8,8,0,0,1-8,8H0a0,0,0,0,1,0,0V0A0,0,0,0,1,0,0Z" transform="translate(6 6)" fill="#7bbd39"/>
    </g>
    <path id="basket" d="M21.087,28.3H16.865l-3.073-7.4a.717.717,0,0,0-1.324.55L15.313,28.3H6.491l2.845-6.855a.717.717,0,0,0-1.324-.55L4.939,28.3H.717a.717.717,0,1,0,0,1.434h.431l1.405,7.686A3.515,3.515,0,0,0,6.011,40.3h9.781a3.514,3.514,0,0,0,3.458-2.883l1.405-7.686h.431a.717.717,0,1,0,0-1.434Z" transform="translate(335.098 85.626)" fill="#fff"/>
  </g>
</svg>
