<svg xmlns="http://www.w3.org/2000/svg" width="21" height="21" viewBox="0 0 21 21"><defs><style>.a{fill:#7dbd3b;}</style></defs><path class="a" d="M11.813,16.406a.984.984,0,1,0,.984.984A.984.984,0,0,0,11.813,16.406Zm5.506-2.3L21,0H1.969A1.971,1.971,0,0,0,0,1.969V8.531A1.971,1.971,0,0,0,1.969,10.5H6.163l.309,3.55a3.93,3.93,0,0,0-2.534,3.668v1.969A1.313,1.313,0,0,0,5.25,21H18.375a1.313,1.313,0,0,0,1.313-1.312V17.719A3.935,3.935,0,0,0,17.319,14.111ZM1.969,9.188a.657.657,0,0,1-.656-.656V1.969a.657.657,0,0,1,.656-.656h3.4l.685,7.875ZM19.3,1.313l-.685,2.625H12.141a.328.328,0,0,0-.328.328v.656a.328.328,0,0,0,.328.328h6.133l-.685,2.625H12.141a.328.328,0,0,0-.328.328v.656a.328.328,0,0,0,.328.328h5.106l-1.2,4.594H7.766L6.681,1.313Zm-.926,18.375H5.25V17.719a2.628,2.628,0,0,1,2.625-2.625H15.75a2.628,2.628,0,0,1,2.625,2.625Z"/></svg>