<svg xmlns="http://www.w3.org/2000/svg" xmlns:xlink="http://www.w3.org/1999/xlink" width="72" height="72" viewBox="0 0 72 72"><defs><style>.a{fill:#fff;}.a,.b,.c{stroke:#fe5d1f;}.b,.c,.e{fill:none;}.b,.c{stroke-width:2px;}.c{stroke-linecap:round;}.d{stroke:none;}.f{filter:url(#a);}</style><filter id="a" x="0" y="0" width="72" height="72" filterUnits="userSpaceOnUse"><feOffset dx="6" dy="6" input="SourceAlpha"/><feGaussianBlur stdDeviation="4" result="b"/><feFlood flood-color="#ececec"/><feComposite operator="in" in2="b"/><feComposite in="SourceGraphic"/></filter></defs><g transform="translate(-59 -86)"><g class="f" transform="matrix(1, 0, 0, 1, 59, 86)"><g class="a" transform="translate(6 6)"><path class="d" d="M0,0H40a8,8,0,0,1,8,8V40a8,8,0,0,1-8,8H0a0,0,0,0,1,0,0V0A0,0,0,0,1,0,0Z"/><path class="e" d="M1,.5H40A7.5,7.5,0,0,1,47.5,8V40A7.5,7.5,0,0,1,40,47.5H1A.5.5,0,0,1,.5,47V1A.5.5,0,0,1,1,.5Z"/></g></g><g transform="translate(-387.807 15)"><g class="b" transform="translate(466 106)"><rect class="d" width="9" height="9"/><rect class="e" x="1" y="1" width="7" height="7"/></g><g class="c" transform="translate(480.864 106)"><rect class="d" width="9" height="9" rx="4.5"/><rect class="e" x="1" y="1" width="7" height="7" rx="3.5"/></g><g class="b" transform="translate(466 91)"><rect class="d" width="9" height="9"/><rect class="e" x="1" y="1" width="7" height="7"/></g><g class="b" transform="translate(481 91)"><rect class="d" width="9" height="9"/><rect class="e" x="1" y="1" width="7" height="7"/></g></g></g></svg>