<svg xmlns="http://www.w3.org/2000/svg" width="17" height="17" viewBox="0 0 17 17"><defs><style>.a{fill:#c4c4c4;}</style></defs><circle class="a" cx="1" cy="1" r="1" transform="translate(10.56 6.47)"/><ellipse class="a" cx="1.5" cy="1" rx="1.5" ry="1" transform="translate(7.194 6.47)"/><ellipse class="a" cx="1.5" cy="1" rx="1.5" ry="1" transform="translate(3.964 6.47)"/><path class="a" d="M16.336,0H.664A.664.664,0,0,0,0,.664V13.812a.664.664,0,0,0,.664.664H6.54l1.4,2.214a.664.664,0,0,0,1.123,0l1.4-2.214h5.876A.664.664,0,0,0,17,13.812V.664A.664.664,0,0,0,16.336,0Zm-.664,13.148H10.094a.664.664,0,0,0-.561.309L8.5,15.092,7.468,13.458a.664.664,0,0,0-.561-.309H1.328V1.328H15.672Z"/></svg>