<svg xmlns="http://www.w3.org/2000/svg" width="17.662" height="20" viewBox="0 0 17.662 20"><defs><style>.a{fill:#dcdbdb;}</style></defs><g transform="translate(-17.7 -13.5)"><g transform="translate(17.7 13.5)"><path class="a" d="M34.63,16.007H29.9v-.676A1.827,1.827,0,0,0,28.066,13.5H25.193a1.827,1.827,0,0,0-1.831,1.831v.676H18.4a.7.7,0,1,0,0,1.408h1.437v13.69A2.392,2.392,0,0,0,22.235,33.5h8.817a2.392,2.392,0,0,0,2.394-2.394V17.415h1.211a.7.7,0,0,0,.7-.7A.722.722,0,0,0,34.63,16.007Zm-9.859-.676a.433.433,0,0,1,.423-.423h2.9a.433.433,0,0,1,.423.423v.676H24.77Zm7.268,15.775a1,1,0,0,1-.986.986H22.207a1,1,0,0,1-.986-.986V17.415H32.01v13.69Z" transform="translate(-17.7 -13.5)"/><path class="a" d="M36.9,45.235a.7.7,0,0,0,.7-.7V35.4a.7.7,0,0,0-1.408,0v9.127A.7.7,0,0,0,36.9,45.235Z" transform="translate(-30.989 -28.728)"/><path class="a" d="M58.5,45.235a.7.7,0,0,0,.7-.7V35.4a.7.7,0,0,0-1.408,0v9.127A.716.716,0,0,0,58.5,45.235Z" transform="translate(-46.504 -28.728)"/><path class="a" d="M47.6,45.235a.7.7,0,0,0,.7-.7V35.4a.7.7,0,0,0-1.408,0v9.127A.7.7,0,0,0,47.6,45.235Z" transform="translate(-38.675 -28.728)"/></g></g></svg>