<svg xmlns="http://www.w3.org/2000/svg" width="20" height="20" viewBox="0 0 20 20">
  <g id="noun_drag_3124730" transform="translate(-3 -3)">
    <path id="Path_1361" data-name="Path 1361" d="M23,12.923a.665.665,0,0,0-.231-.462l-2.154-2.154a.761.761,0,0,0-1.077,1.077l.846.846H13.769V5.615l.846.846a.761.761,0,0,0,1.077-1.077L13.538,3.231A.7.7,0,0,0,13,3a.873.873,0,0,0-.615.231L10.231,5.385a.761.761,0,0,0,1.077,1.077l.923-.846v6.615H5.615l.846-.846a.761.761,0,0,0-1.077-1.077L3.231,12.462a.744.744,0,0,0,0,1.077l2.154,2.154a.831.831,0,0,0,.538.231.831.831,0,0,0,.538-.231.744.744,0,0,0,0-1.077l-.846-.846h6.615v6.615l-.846-.846a.761.761,0,1,0-1.077,1.077l2.154,2.154a.744.744,0,0,0,1.077,0l2.154-2.154a.761.761,0,1,0-1.077-1.077l-.846.846V13.769h6.615l-.846.846a.744.744,0,0,0,0,1.077.744.744,0,0,0,1.077,0l2.154-2.154A.873.873,0,0,0,23,12.923Z" transform="translate(0 0)" fill="#cbcbcb"/>
  </g>
</svg>
