<svg xmlns="http://www.w3.org/2000/svg" width="43.2" height="43.217" viewBox="0 0 43.2 43.217"><defs><style>.a{fill:#4fba6f;}.b{fill:#f3d55b;}.c{fill:#f29c1f;}.d{fill:#e64c3c;}.e{fill:#24ae5f;}.f{fill:#fff;}</style></defs><g transform="translate(0 0)"><g transform="translate(0 0)"><path class="a" d="M42.7,37.238l-1.356-2.712L35.756,23.351l-5.58-11.176L25.922,3.667a4.822,4.822,0,0,0-8.627,0L13.04,12.175,7.46,23.351,1.872,34.527.516,37.238A4.82,4.82,0,0,0,4.83,44.212H38.386A4.82,4.82,0,0,0,42.7,37.238Zm-21.092,2.5a10.438,10.438,0,1,1,9.03-5.215,10.438,10.438,0,0,1-9.03,5.215Z" transform="translate(-0.008 -0.995)"/><path class="b" d="M40.957,42.176A10.4,10.4,0,0,0,40.48,31h5.6l5.588,11.176Z" transform="translate(-10.327 -8.644)"/><path class="b" d="M11.815,36.96a10.322,10.322,0,0,0,1.4,5.215H2.51L8.1,31h5.6A10.356,10.356,0,0,0,11.815,36.96Z" transform="translate(-0.646 -8.644)"/><path class="c" d="M38.306,27.176h-5.6a10.418,10.418,0,0,0-17.106,0h-5.6L15.59,16H32.726Z" transform="translate(-2.558 -4.82)"/><path class="d" d="M34.636,12.174H17.5l4.254-8.508a4.818,4.818,0,0,1,8.627,0Z" transform="translate(-4.468 -0.994)"/><path class="e" d="M35.851,35.43a10.445,10.445,0,1,1-1.878-5.96,10.322,10.322,0,0,1,1.877,5.96Z" transform="translate(-3.82 -7.114)"/><g transform="translate(2.23 17.132)"><path class="f" d="M25.175,46.348a11.183,11.183,0,1,1,9.673-5.588,11.183,11.183,0,0,1-9.673,5.588Zm0-20.861a9.7,9.7,0,1,0,7.943,4.153,9.7,9.7,0,0,0-7.943-4.153Z" transform="translate(-5.806 -23.988)"/><path class="f" d="M22.728,42.683a.745.745,0,0,1-.527-.218l-2.98-2.98a.745.745,0,0,1,1.053-1.053l2.5,2.5,9.164-7.748a.745.745,0,1,1,.963,1.137l-9.685,8.2a.741.741,0,0,1-.484.173Z" transform="translate(-7.084 -26.283)"/><path class="f" d="M5.591,54.579a2.586,2.586,0,0,1-2.2-1.226,2.55,2.55,0,0,1-.112-2.515.745.745,0,1,1,1.333.667,1.1,1.1,0,0,0,.978,1.585.745.745,0,0,1,0,1.49Z" transform="translate(-3.001 -30.729)"/></g></g></g></svg>