<svg xmlns="http://www.w3.org/2000/svg" width="14.464" height="23.143" viewBox="0 0 14.464 23.143"><defs><style>.a{fill:#7dbd3b;}</style></defs><path class="a" d="M110.253,8.89l-1.235-1.234V5.062a.723.723,0,0,0-.723-.723h-3.335l.963-2.893h2.372a.723.723,0,1,0,0-1.446H105.4a.726.726,0,0,0-.687.495l-1.282,3.845H98.17a.723.723,0,0,0-.723.723V7.656L96.211,8.89A.728.728,0,0,0,96,9.4V20.973a2.172,2.172,0,0,0,2.17,2.17h10.125a2.172,2.172,0,0,0,2.17-2.17V9.4A.728.728,0,0,0,110.253,8.89Zm-11.36-3.1h8.678V7.232H98.893Zm10.125,15.187a.724.724,0,0,1-.723.723H98.17a.724.724,0,0,1-.723-.723v-7.68a10.245,10.245,0,0,0,2.627.35,8.758,8.758,0,0,0,3.441-.683,8.151,8.151,0,0,1,5.5-.155Zm0-9.672a9.378,9.378,0,0,0-6.068.327,8.151,8.151,0,0,1-5.5.155V9.7l1.023-1.023H108L109.018,9.7Z" transform="translate(-96)"/></svg>