<svg xmlns="http://www.w3.org/2000/svg" width="28.874" height="24" viewBox="0 0 28.874 24"><defs><style>.a{fill:#7dbd3b;}</style></defs><path class="a" d="M28.234,5.559,25.191.7a1.5,1.5,0,0,0-1.27-.7H4.984a1.5,1.5,0,0,0-1.27.7L.671,5.559a4.253,4.253,0,0,0,1.781,6.131V22.35A1.581,1.581,0,0,0,3.952,24h21a1.581,1.581,0,0,0,1.5-1.65V11.691A4.253,4.253,0,0,0,28.234,5.559ZM24.952,22.35c0,.094-.037.145-.009.15l-20.934.014a.21.21,0,0,1-.056-.164V16.5h21ZM3.952,15V12H4.07a4.629,4.629,0,0,0,3.459-1.552,4.632,4.632,0,0,0,6.919,0,4.632,4.632,0,0,0,6.919,0A4.646,4.646,0,0,0,24.831,12h.117v3ZM27.118,9.07a2.376,2.376,0,0,1-1.842,1.4,3.422,3.422,0,0,1-.441.028,3.11,3.11,0,0,1-2.344-1.055L21.376,8.2,20.26,9.45a3.132,3.132,0,0,1-4.687,0L14.452,8.2,13.337,9.45a3.132,3.132,0,0,1-4.688,0L7.529,8.2,6.413,9.45A3.11,3.11,0,0,1,4.07,10.5a3.422,3.422,0,0,1-.441-.028,2.376,2.376,0,0,1-1.842-1.4,2.859,2.859,0,0,1,.155-2.714L4.984,1.5H23.921l3.042,4.856A2.86,2.86,0,0,1,27.118,9.07Z" transform="translate(-0.016)"/></svg>