<svg xmlns="http://www.w3.org/2000/svg" width="54.24" height="53.411" viewBox="0 0 54.24 53.411"><defs><style>.a{fill:#fe5d1f;stroke:#fe5d1f;stroke-width:2px;fill-rule:evenodd;}</style></defs><g transform="translate(-10.848 -10.981)"><g transform="translate(11.847 11.981)"><path class="a" d="M17.157,53.813a1.086,1.086,0,0,1,2.138.383,39.907,39.907,0,0,0-.57,7.025h3.62a1.086,1.086,0,1,1,0,2.172H12.933a1.086,1.086,0,1,1,0-2.172h3.62A42.062,42.062,0,0,1,17.157,53.813ZM25.8,39.848a1.086,1.086,0,0,1,1.119,1.862,14.363,14.363,0,0,0-4.8,4.727,1.086,1.086,0,1,1-1.836-1.159A16.535,16.535,0,0,1,25.8,39.848ZM41.779,36.7a1.086,1.086,0,1,1,.281,2.154,31.911,31.911,0,0,1-4.137.253h0l-.818.011q-1.213.031-2.344.152a1.086,1.086,0,1,1-.23-2.16,32.415,32.415,0,0,1,3.391-.175h0l.817-.009A28.624,28.624,0,0,0,41.779,36.7Zm12.333-7.59A1.086,1.086,0,0,1,55.988,30.2a16.67,16.67,0,0,1-5.3,5.637,1.086,1.086,0,0,1-1.19-1.816A14.5,14.5,0,0,0,54.112,29.109ZM63,11.981a1.086,1.086,0,1,1,0,2.172h-3.62v.735a43.746,43.746,0,0,1-.42,6.195l-.079.518a1.086,1.086,0,0,1-2.144-.343,40.783,40.783,0,0,0,.471-6.372h0v-.734H53.591a1.086,1.086,0,0,1,0-2.172Z" transform="translate(-11.847 -11.981)"/></g></g></svg>