<svg xmlns="http://www.w3.org/2000/svg" width="44.875" height="55.5" viewBox="0 0 44.875 55.5"><defs><style>.a{fill:#fe5d1f;}</style></defs><path class="a" d="M1237.318-8421.5a6.314,6.314,0,0,1-5.009-10.148l14.716-19.244v-11.882h-2.6a.6.6,0,0,1-.6-.6v-2a.6.6,0,0,1,.6-.6h8.419l2.148-8.591a3.206,3.206,0,0,1,3.112-2.43h4.358a.8.8,0,0,1,.8.8v1.6a.8.8,0,0,1-.8.8H1258.1l-1.953,7.814h6.308a.6.6,0,0,1,.6.6v2a.6.6,0,0,1-.6.6h-2.6v11.882l14.717,19.244a6.311,6.311,0,0,1-5.009,10.148Zm12.913-28.853a1.63,1.63,0,0,1-.33.973l-15.047,19.686a3.1,3.1,0,0,0,2.464,4.988h32.238a3.1,3.1,0,0,0,2.464-4.988l-15.047-19.686a1.629,1.629,0,0,1-.331-.973v-12.422h-6.412Z" transform="translate(-1231 8477)"/></svg>