<svg xmlns="http://www.w3.org/2000/svg" width="53.411" height="53.411" viewBox="0 0 53.411 53.411"><defs><style>.a{fill:#fe5d1f;stroke:#fe5d1f;stroke-width:2px;}</style></defs><g transform="translate(-9 -9)"><path class="a" d="M10.643,54.918a.643.643,0,1,0,0,1.285h1.719v4.565a.643.643,0,0,0,.643.643H55.821a.643.643,0,0,0,.643-.643V34.858h1.849a3.1,3.1,0,0,0,3.1-3.1V26.408a3.085,3.085,0,0,0-1.231-2.456A3.085,3.085,0,0,0,61.411,21.5v-5.35a3.1,3.1,0,0,0-3.1-3.1H56.464v-2.4A.643.643,0,0,0,55.821,10H13a.643.643,0,0,0-.643.643v4.565H10.643a.643.643,0,1,0,0,1.285h1.719v8.642H10.643a.643.643,0,0,0,0,1.285h1.719v8.642H10.643a.643.643,0,1,0,0,1.285h1.719V44.99H10.643a.643.643,0,0,0,0,1.285h1.719v8.642H10.643Zm49.484-28.51v5.351a1.816,1.816,0,0,1-1.814,1.813H56.464V24.595h1.849A1.816,1.816,0,0,1,60.126,26.408ZM58.312,14.332a1.816,1.816,0,0,1,1.814,1.814V21.5a1.816,1.816,0,0,1-1.814,1.814H56.464V14.332ZM55.179,60.126H20.657V11.285H55.179ZM13.647,46.276h1.719a.643.643,0,1,0,0-1.285H13.647V36.348h1.719a.643.643,0,1,0,0-1.285H13.647V26.421h1.719a.643.643,0,1,0,0-1.285H13.647V16.493h1.719a.643.643,0,1,0,0-1.285H13.647V11.285h5.725V60.126H13.647V56.2h1.719a.643.643,0,1,0,0-1.285H13.647V46.276Z"/><path class="a" d="M31.524,46.012a13.763,13.763,0,0,0,12.753,12.4q.447.028.89.028A13.552,13.552,0,0,0,54.52,54.73a13.778,13.778,0,0,0,4.328-10.005,13.6,13.6,0,0,0-2.831-8.349,6.329,6.329,0,0,1-1.375-4.07,9.467,9.467,0,0,0-.082-1.677,7.776,7.776,0,0,0-.486-1.992,7.17,7.17,0,0,0,.741-.264.643.643,0,0,0,.318-.868,11.616,11.616,0,0,0-8.148-6.153,7.935,7.935,0,0,0-1.189-.16V18.747a.643.643,0,1,0-1.285,0V21.2a8.752,8.752,0,0,0-1.151.146,11.083,11.083,0,0,0-8.186,6.138.643.643,0,0,0,.351.88c.039.015.293.108.695.216a8.414,8.414,0,0,0-.557,3.348q0,.315.021.624a4.838,4.838,0,0,1-1.073,3.43A13.682,13.682,0,0,0,31.524,46.012ZM43.6,22.605a8.385,8.385,0,0,1,3.114,0,10.459,10.459,0,0,1,6.923,4.819,7.112,7.112,0,0,1-5.4-.436.643.643,0,0,0-.947.442,8.675,8.675,0,0,1-2.128,4.506,8.726,8.726,0,0,1-2.146-4.6.643.643,0,0,0-.962-.439,7.37,7.37,0,0,1-5.361.472A9.814,9.814,0,0,1,43.6,22.605Zm-6.632,9.858q-.018-.267-.018-.539a6.968,6.968,0,0,1,.557-3.085,8.393,8.393,0,0,0,4.415-.443A9.033,9.033,0,0,0,44.748,33.3a.642.642,0,0,0,.816,0,8.991,8.991,0,0,0,2.8-4.818,8.154,8.154,0,0,0,4.438.445,6.194,6.194,0,0,1,.48,1.875,8.176,8.176,0,0,1,.071,1.448A7.613,7.613,0,0,0,55,37.159a12.426,12.426,0,0,1-10.64,19.97A12.432,12.432,0,0,1,35.6,36.8,6.115,6.115,0,0,0,36.966,32.463Z" transform="translate(-7.671 -2.896)"/><path class="a" d="M51.464,68.706q.281.017.559.018a8.657,8.657,0,0,0,7.532-4.354.642.642,0,1,0-1.113-.643,7.381,7.381,0,0,1-6.9,3.7.643.643,0,1,0-.08,1.283Z" transform="translate(-14.602 -19.085)"/></g></svg>