<svg xmlns="http://www.w3.org/2000/svg" width="76" height="51" viewBox="0 0 76 51"><defs><style>.a{fill:#fe5d1f;}</style></defs><g transform="translate(-4.853 -20.365)"><g transform="translate(5 20.365)"><path class="a" d="M23.159,38.843A9.239,9.239,0,1,0,13.92,29.6,9.239,9.239,0,0,0,23.159,38.843Zm0-14.313A5.074,5.074,0,1,1,18.085,29.6,5.08,5.08,0,0,1,23.159,24.529Z" transform="translate(-6.402 -20.365)"/><path class="a" d="M9.175,58.2a8.62,8.62,0,0,1,8.611-8.611h7.96c.928,0,1.282-.005,2.659,0V45.42a20.948,20.948,0,0,0-2.659,0h-7.96A12.411,12.411,0,0,0,5.063,57.8l4.112.4Z" transform="translate(-5.01 -24.296)"/><path class="a" d="M73.395,38.843A9.239,9.239,0,1,0,64.156,29.6,9.239,9.239,0,0,0,73.395,38.843Zm0-14.313A5.074,5.074,0,1,1,68.321,29.6,5.08,5.08,0,0,1,73.395,24.529Z" transform="translate(-14.299 -20.365)"/><path class="a" d="M69.906,45.417c-1.239,0-2.361-.093-2.624-.054v4.219c1.08-.005,1.682,0,2.624,0h7.961a8.62,8.62,0,0,1,8.611,8.611h4.165A12.792,12.792,0,0,0,77.867,45.416H69.906Z" transform="translate(-14.79 -24.293)"/><path class="a" d="M47.964,57.89a9.229,9.229,0,1,0-9.239-9.239A9.239,9.239,0,0,0,47.964,57.89Zm0-14.313a5.074,5.074,0,1,1-5.074,5.074A5.08,5.08,0,0,1,47.964,43.577Z" transform="translate(-10.301 -23.359)"/><path class="a" d="M50.567,64.477h-7.96A12.37,12.37,0,0,0,29.969,76.893l1.945.361,2.3-.361a8.139,8.139,0,0,1,8.4-8.25h7.96c4.749,0,8.925,3.475,8.925,8.224h4.165C63.658,69.821,57.612,64.477,50.567,64.477Z" transform="translate(-8.925 -27.299)"/><circle class="a" cx="2" cy="2" r="2" transform="translate(-0.147 31)"/><circle class="a" cx="2" cy="2" r="2" transform="translate(20.853 47)"/><circle class="a" cx="2" cy="2" r="2" transform="translate(50.853 47)"/><circle class="a" cx="2" cy="2" r="2" transform="translate(71.853 32)"/><circle class="a" cx="2" cy="2" r="2" transform="translate(50.853 21)"/><circle class="a" cx="2" cy="2" r="2" transform="translate(20.853 21)"/></g></g></svg>