<svg xmlns="http://www.w3.org/2000/svg" width="28.579" height="18.754" viewBox="0 0 28.579 18.754"><defs><style>.a{fill:#7dbd3b;}</style></defs><path class="a" d="M19.2,50.493a2.885,2.885,0,1,1-2.885,2.885A2.883,2.883,0,0,1,19.2,50.493Zm0,4.327a1.442,1.442,0,1,0-1.442-1.442A1.445,1.445,0,0,0,19.2,54.819ZM7.851,51.082l1.237.732a.364.364,0,0,0,.411-.027l1.134-.911a.357.357,0,0,0,.116-.4l-.46-1.331a.727.727,0,0,1,.232-.8C13.558,45.92,15.335,44,19.206,44a9.374,9.374,0,0,1,4.291,1.04A2.875,2.875,0,1,1,27.543,49.1,9.376,9.376,0,0,1,12.571,60.008a9.265,9.265,0,0,1-1.183-1.447L4.6,62.437a.722.722,0,0,1-.933-.192l-3.528-4.7a.722.722,0,0,1,.125-1l6.765-5.412A.713.713,0,0,1,7.851,51.082Zm19.286-4.2a1.445,1.445,0,0,0-1.442-1.442,1.429,1.429,0,0,0-.965.371,9.041,9.041,0,0,1,1.1.933,9.67,9.67,0,0,1,.924,1.094A1.428,1.428,0,0,0,27.137,46.885ZM4.252,60.615a.361.361,0,0,0,.469.1l7.122-4.072c.589.889,2.545,4.653,7.328,4.671a7.932,7.932,0,1,0-4.2-14.637c-.411.3-3.148,2.483-3.148,2.483l.54,1.572a.727.727,0,0,1-.232.8L9.811,53.382a.721.721,0,0,1-.817.058l-1.451-.857L1.988,57.025a.364.364,0,0,0-.063.5l2.326,3.09Z" transform="translate(0 -44)"/></svg>