<svg id="Layer_1" data-name="Layer 1" xmlns="http://www.w3.org/2000/svg" viewBox="0 0 165.3 162.72"><defs><style>.cls-1{fill:#7cbc39;}.cls-2{fill:#fe520a;}</style></defs><path class="cls-1" d="M72.44,39.21a62.81,62.81,0,0,1,39.71,14.07A63.1,63.1,0,1,0,23.4,142a63.09,63.09,0,0,1,49-102.81Z"/><path class="cls-2" d="M141.9,25.16A63.1,63.1,0,0,1,53.15,113.9,63.1,63.1,0,1,0,141.9,25.16Z"/><path class="cls-2" d="M38.71,90.28a62.76,62.76,0,0,1,14.07-39.7,63.1,63.1,0,1,0,88.74,88.75A63.1,63.1,0,0,1,38.71,90.28Z"/><path class="cls-2" d="M132.18,72.44a62.81,62.81,0,0,1-14.07,39.71A63.1,63.1,0,1,0,29.37,23.4a63.09,63.09,0,0,1,102.81,49Z"/></svg>