<svg xmlns="http://www.w3.org/2000/svg" width="24" height="24" viewBox="0 0 24 24"><defs><style>.a{fill:#7dbd3b;}</style></defs><path class="a" d="M21.558,9l-.1,0c-2.334.133-6.586.609-9.461,2.23C9.126,9.613,4.873,9.136,2.539,9c-.031,0-.064,0-.1,0A2.381,2.381,0,0,0,0,11.354V19.7A2.371,2.371,0,0,0,2.266,22.05c1.613.085,5.651.426,8.3,1.756a1.773,1.773,0,0,0,.687.18V24h1.5v-.013a1.781,1.781,0,0,0,.687-.18c2.646-1.331,6.684-1.671,8.3-1.756A2.371,2.371,0,0,0,24,19.7V11.354A2.381,2.381,0,0,0,21.558,9ZM11.25,22.47s-.008,0-.013,0c-2.793-1.4-6.77-1.8-8.892-1.914A.872.872,0,0,1,1.5,19.7V11.354a.7.7,0,0,1,.278-.619,1.2,1.2,0,0,1,.675-.235c1.735.1,6.06.5,8.8,2.032V22.47ZM22.5,19.7a.872.872,0,0,1-.845.852c-2.122.112-6.1.509-8.895,1.916,0,0-.007,0-.01,0V12.533C15.487,11,19.812,10.6,21.539,10.5h.018c.009,0,.942.023.942.854V19.7ZM12,9A4.5,4.5,0,1,0,7.5,4.5,4.5,4.5,0,0,0,12,9Zm0-7.5a3,3,0,1,1-3,3A3,3,0,0,1,12,1.5Z"/></svg>