<svg xmlns="http://www.w3.org/2000/svg" width="24" height="20.2" viewBox="0 0 24 20.2">
  <path id="chart-bar-light-green" d="M151.2,115.2h.2a.6.6,0,0,0,.6-.6v-18a.6.6,0,0,0-.6-.6h-.2a.6.6,0,0,0-.6.6v18a.6.6,0,0,0,.6.6Zm-7.2,0h.2a.6.6,0,0,0,.6-.6V103.8a.6.6,0,0,0-.6-.6H144a.6.6,0,0,0-.6.6v10.8a.6.6,0,0,0,.6.6Zm-14.4,0h.2a.6.6,0,0,0,.6-.6v-6a.6.6,0,0,0-.6-.6h-.2a.6.6,0,0,0-.6.6v6a.6.6,0,0,0,.6.6Zm7.2,0h.2a.6.6,0,0,0,.6-.6V99a.6.6,0,0,0-.6-.6h-.2a.6.6,0,0,0-.6.6v15.6a.6.6,0,0,0,.6.6Z" transform="translate(-128.5 -95.5)" fill="#7cbc39" stroke="#7cbc39" stroke-width="1"/>
</svg>
