<svg xmlns="http://www.w3.org/2000/svg" width="16" height="16" viewBox="0 0 16 16"><defs><style>.a{fill:none;}.b,.c{stroke:none;}.c{fill:#c4c4c4;}</style></defs><g class="a"><path class="b" d="M0,0H10.074A5.926,5.926,0,0,1,16,5.926V16H5.926A5.926,5.926,0,0,1,0,10.074Z"/><path class="c" d="M 1.5 1.5 L 1.5 10.07406997680664 C 1.5 12.51453971862793 3.48546028137207 14.5 5.925930023193359 14.5 L 14.5 14.5 L 14.5 5.925930023193359 C 14.5 3.48546028137207 12.51453971862793 1.5 10.07406997680664 1.5 L 1.5 1.5 M 0 0 L 10.07406997680664 0 C 13.34687042236328 0 16 2.653129577636719 16 5.925930023193359 L 16 16 L 5.925930023193359 16 C 2.653129577636719 16 0 13.34687042236328 0 10.07406997680664 L 0 0 Z"/></g></svg>