<svg xmlns="http://www.w3.org/2000/svg" xmlns:xlink="http://www.w3.org/1999/xlink" width="72" height="72" viewBox="0 0 72 72"><defs><style>.a{fill:#fe5d1f;}.b{fill:#fff;}.c{filter:url(#a);}</style><filter id="a" x="0" y="0" width="72" height="72" filterUnits="userSpaceOnUse"><feOffset dx="6" dy="6" input="SourceAlpha"/><feGaussianBlur stdDeviation="4" result="b"/><feFlood flood-color="#ececec"/><feComposite operator="in" in2="b"/><feComposite in="SourceGraphic"/></filter></defs><g transform="translate(-59 -86)"><g class="c" transform="matrix(1, 0, 0, 1, 59, 86)"><path class="a" d="M0,0H40a8,8,0,0,1,8,8V40a8,8,0,0,1-8,8H0a0,0,0,0,1,0,0V0A0,0,0,0,1,0,0Z" transform="translate(6 6)"/></g><g transform="translate(-387.807 15)"><rect class="b" width="9" height="9" transform="translate(466 106)"/><rect class="b" width="9" height="9" rx="4.5" transform="translate(480.864 106)"/><rect class="b" width="9" height="9" transform="translate(466 91)"/><rect class="b" width="9" height="9" transform="translate(481 91)"/></g></g></svg>