<svg xmlns="http://www.w3.org/2000/svg" width="15.754" height="18" viewBox="0 0 15.754 18"><defs><style>.a{fill:#707070;}</style></defs><path class="a" d="M12.375,11.25a3.366,3.366,0,0,0-2.524,1.136l-3.357-2.1a3.381,3.381,0,0,0,0-2.573l3.357-2.1a3.347,3.347,0,1,0-.6-.953L5.9,6.761a3.373,3.373,0,1,0,0,4.479l3.357,2.1A3.333,3.333,0,0,0,9,14.625a3.375,3.375,0,1,0,3.371-3.375Zm0-10.125a2.25,2.25,0,1,1-2.25,2.25A2.252,2.252,0,0,1,12.375,1.125Zm-9,10.125A2.25,2.25,0,1,1,5.625,9,2.252,2.252,0,0,1,3.375,11.25Zm9,5.625a2.25,2.25,0,1,1,2.25-2.25A2.252,2.252,0,0,1,12.375,16.875Z"/></svg>