<svg xmlns="http://www.w3.org/2000/svg" width="27.151" height="24.528" viewBox="0 0 27.151 24.528"><defs><style>.a{fill:#fe5d1f;stroke:#fe5d1f;stroke-width:0.5px;}</style></defs><g transform="translate(0.25 -23.597)"><g transform="translate(0 33.217)"><g transform="translate(0 0)"><path class="a" d="M26.207,192.124H.444a.444.444,0,0,0-.444.444c0,5.645,2.885,10.325,7.551,12.292v1.478a.444.444,0,0,0,.444.444H18.656a.444.444,0,0,0,.444-.444V204.86c4.666-1.967,7.551-6.647,7.551-12.292A.444.444,0,0,0,26.207,192.124Zm-7.713,12.024a.444.444,0,0,0-.282.414v1.333H8.44v-1.333a.444.444,0,0,0-.282-.414C3.8,202.438,1.044,198.2.9,193.012H25.756C25.607,198.2,22.854,202.438,18.494,204.148Z" transform="translate(0 -192.124)"/></g></g><g transform="translate(18.214 35.006)"><path class="a" d="M334.357,224.345a.444.444,0,0,0-.526.316l-.128.512a11.1,11.1,0,0,1-5.414,7.193.445.445,0,0,0,.4.8,12.009,12.009,0,0,0,5.879-7.773l.128-.513A.444.444,0,0,0,334.357,224.345Z" transform="translate(-328.046 -224.334)"/></g><g transform="translate(8.438 23.875)"><g transform="translate(0 0)"><path class="a" d="M153.046,26.583a2.105,2.105,0,0,1-.027-1.625l.192-.45a.444.444,0,0,0-.8-.377l-.012.027-.193.45a2.97,2.97,0,0,0,.044,2.362,2.105,2.105,0,0,1,.027,1.625l-.192.45a.444.444,0,1,0,.8.377l.012-.027.193-.45A2.97,2.97,0,0,0,153.046,26.583Z" transform="translate(-151.979 -23.875)"/></g></g><g transform="translate(12.436 23.875)"><g transform="translate(0 0)"><path class="a" d="M225.046,26.583a2.105,2.105,0,0,1-.027-1.625l.192-.45a.444.444,0,1,0-.8-.377l-.012.027-.193.45a2.97,2.97,0,0,0,.044,2.362,2.105,2.105,0,0,1,.027,1.625l-.192.45a.444.444,0,1,0,.8.377l.012-.027.193-.45A2.97,2.97,0,0,0,225.046,26.583Z" transform="translate(-223.979 -23.875)"/></g></g><g transform="translate(16.434 23.875)"><g transform="translate(0 0)"><path class="a" d="M297.046,26.583a2.105,2.105,0,0,1-.027-1.625l.192-.45a.444.444,0,0,0-.8-.377l-.012.027-.193.45a2.97,2.97,0,0,0,.044,2.362,2.105,2.105,0,0,1,.027,1.625l-.192.45a.444.444,0,1,0,.8.377l.012-.027.193-.45A2.97,2.97,0,0,0,297.046,26.583Z" transform="translate(-295.979 -23.875)"/></g></g></g></svg>