<svg xmlns="http://www.w3.org/2000/svg" width="41.379" height="50" viewBox="0 0 41.379 50"><defs><style>.a{fill:#008100;}.b{fill:#f80;}.c{fill:#fadbb7;}.d{fill:#e47700;}.e{fill:#a65a14;}.f{fill:#7c440f;}.g{fill:#33bc00;}.h{fill:#fce9cc;}.i{fill:#fdb62f;}.j{fill:#ff421d;}.k{fill:#ff6536;}.l{fill:#6cbbc7;}.m{fill:#025902;}</style></defs><g transform="translate(-40)"><path class="a" d="M256,40h1.724v3.448H256Z" transform="translate(-192.724 -35.69)"/><path class="b" d="M241.992,67.418l-1.041,7.8a1.969,1.969,0,0,1-3.9,0l-1.041-7.8a3.019,3.019,0,1,1,5.984,0Z" transform="translate(-174.862 -57.103)"/><path class="a" d="M360,224h1.724v3.448H360Z" transform="translate(-285.517 -199.862)"/><path class="c" d="M256,280h4.31v4.31H256Z" transform="translate(-192.724 -249.828)"/><path class="d" d="M104,384h27.586v8.621H104Z" transform="translate(-57.103 -342.621)"/><path class="e" d="M288.621,291.207l6-6a3.048,3.048,0,1,0-4.31-4.31L280,291.207Z" transform="translate(-214.138 -249.828)"/><g transform="translate(73.621 32.759)"><path class="f" d="M384,304h1.724v1.724H384Z" transform="translate(-380.552 -304)"/><path class="f" d="M352,336h1.724v1.724H352Z" transform="translate(-352 -332.552)"/></g><path class="g" d="M40,277.529v.148a2.943,2.943,0,0,0,2.943,2.943h1.01a2.943,2.943,0,0,0,2.943-2.943h0v-.148a2.943,2.943,0,0,0-.862-2.081,2.943,2.943,0,0,1-.862-2.081A1.367,1.367,0,0,0,43.805,272h-.714a1.367,1.367,0,0,0-1.367,1.367,2.943,2.943,0,0,1-.862,2.081A2.943,2.943,0,0,0,40,277.529Z" transform="translate(0 -242.69)"/><path class="e" d="M160,336.862v.862a3.448,3.448,0,0,0,3.448,3.448h.862a.862.862,0,0,0,.862-.862v-.862A3.448,3.448,0,0,0,161.724,336h-.862A.862.862,0,0,0,160,336.862Z" transform="translate(-107.069 -299.793)"/><path class="a" d="M72.939,112.4l3.744-3.744a2.439,2.439,0,0,0-1.723-4.163h-1.01a3.448,3.448,0,0,0-3.448-3.448h-.862l-.431-.431a3.048,3.048,0,1,0-4.31,4.31l.431.431v.862a3.448,3.448,0,0,0,3.448,3.448v1.01a2.438,2.438,0,0,0,2.438,2.438h0a2.438,2.438,0,0,0,1.724-.714Z" transform="translate(-21.418 -88.972)"/><path class="h" d="M227.448,223.017h-1.293a2.155,2.155,0,0,0,0,4.31h6.9a2.155,2.155,0,0,0,0-4.31h-1.293v-.862a2.155,2.155,0,0,0-4.31,0Z" transform="translate(-164.172 -196.293)"/><path class="i" d="M128,260.31v-.862A3.448,3.448,0,0,1,131.448,256h.862a.862.862,0,0,1,.862.862v.862a3.448,3.448,0,0,1-3.448,3.448h-.862A.862.862,0,0,1,128,260.31Z" transform="translate(-78.517 -228.414)"/><path class="j" d="M357.172,152.172V152A5.173,5.173,0,0,0,352,157.172V158.9a1.724,1.724,0,0,0,3.448,0v-1.034a5.133,5.133,0,0,1,.862-2.845A5.133,5.133,0,0,0,357.172,152.172Z" transform="translate(-278.379 -135.621)"/><path class="g" d="M232,8h3.448V9.724H232Z" transform="translate(-171.31 -7.138)"/><g transform="translate(61.124 9.483)"><path class="k" d="M239.042,88h-2.976a2.99,2.99,0,0,0-.017.832l.12.892h2.873Z" transform="translate(-236.028 -88)"/><path class="k" d="M264,121.724h2.414l.172-1.293V120H264Z" transform="translate(-260.986 -116.552)"/></g><path class="i" d="M321.724,112h.862a1.724,1.724,0,0,1,1.724,1.724h0a1.724,1.724,0,0,1-1.724,1.724h-.862A1.724,1.724,0,0,1,320,113.724h0A1.724,1.724,0,0,1,321.724,112Z" transform="translate(-249.828 -99.931)"/><path class="l" d="M169.724,80h.862a1.724,1.724,0,0,1,1.724,1.724h0a1.724,1.724,0,0,1-1.724,1.724h-.862A1.724,1.724,0,0,1,168,81.724h0A1.724,1.724,0,0,1,169.724,80Z" transform="translate(-114.207 -71.379)"/><path class="m" d="M126.627,163.557l1.219-1.219,6.9,6.9-1.219,1.219Z" transform="translate(-77.292 -144.845)"/><path class="i" d="M160.172,5.172H160A5.172,5.172,0,0,1,165.172,0H166.9a1.724,1.724,0,0,1,1.724,1.724h0A1.724,1.724,0,0,1,166.9,3.448h-1.034a5.133,5.133,0,0,0-2.845.862A5.133,5.133,0,0,1,160.172,5.172Z" transform="translate(-107.069)"/></g></svg>