<svg xmlns="http://www.w3.org/2000/svg" xmlns:xlink="http://www.w3.org/1999/xlink" width="159" height="159" viewBox="0 0 159 159"><defs><style>.a{clip-path:url(#a);}.b{fill:#db4437;}.c{fill:url(#b);}.d{fill:rgba(62,39,35,0.15);}.e{fill:#0f9d58;}.f{fill:url(#e);}.g{fill:rgba(38,50,56,0.15);}.h{clip-path:url(#h);}.i{fill:#ffcd40;}.j{fill:url(#i);}.k{clip-path:url(#m);}.l{fill:url(#p);}.m{clip-path:url(#r);}.n{fill:url(#u);}.o{fill:url(#w);}.p{fill:#f1f1f1;}.q{fill:#4285f4;}.r{fill:rgba(62,39,35,0.2);}.s{fill:rgba(255,255,255,0.1);}.t{fill:#3e2723;opacity:0.1;}.u{fill:rgba(255,255,255,0.2);}.v{fill:url(#aa);}.w{fill:none;}</style><clipPath id="a"><circle cx="72.5" cy="72.5" r="72.5" transform="translate(0.375 0.375)"/></clipPath><linearGradient id="b" x1="0.045" y1="0.621" x2="0.369" y2="0.337" gradientUnits="objectBoundingBox"><stop offset="0" stop-color="#a52714" stop-opacity="0.6"/><stop offset="0.66" stop-color="#a52714" stop-opacity="0"/></linearGradient><linearGradient id="e" x1="0.839" y1="0.878" x2="0.363" y2="0.664" gradientUnits="objectBoundingBox"><stop offset="0" stop-color="#055524" stop-opacity="0.4"/><stop offset="0.33" stop-color="#055524" stop-opacity="0"/></linearGradient><clipPath id="h"><path d="M8,156.583H77.372l32.2-32.2V100.27H52.189L8,24.48Z" transform="translate(-8 -24.48)"/></clipPath><linearGradient id="i" x1="0.326" y1="-0.048" x2="0.485" y2="0.454" gradientUnits="objectBoundingBox"><stop offset="0" stop-color="#ea6100" stop-opacity="0.302"/><stop offset="0.66" stop-color="#ea6100" stop-opacity="0"/></linearGradient><clipPath id="m"><path d="M95.273,56l28.695,49.688L91.77,162h76.378V56Z" transform="translate(-91.77 -56)"/></clipPath><radialGradient id="p" cx="-0.049" cy="-0.002" r="4.013" gradientTransform="translate(5.348) scale(0.267 1)" gradientUnits="objectBoundingBox"><stop offset="0" stop-color="#3e2723" stop-opacity="0.2"/><stop offset="1" stop-color="#3e2723" stop-opacity="0"/></radialGradient><clipPath id="r"><path d="M21.97,8V41.407L54.59,97.438,83.276,47.75h72.875V8Z" transform="translate(-21.97 -8)"/></clipPath><radialGradient id="u" cx="-0.002" cy="0.001" r="1.155" gradientTransform="translate(-1.81) scale(1.18 1)" xlink:href="#p"/><radialGradient id="w" cx="0.103" cy="-0.122" r="1.124" gradientTransform="translate(-15.157) scale(2.014 1)" gradientUnits="objectBoundingBox"><stop offset="0" stop-color="#263238" stop-opacity="0.2"/><stop offset="1" stop-color="#263238" stop-opacity="0"/></radialGradient><radialGradient id="aa" cx="0.149" cy="0.136" r="1.004" gradientUnits="objectBoundingBox"><stop offset="0" stop-color="#fff" stop-opacity="0.102"/><stop offset="1" stop-color="#fff" stop-opacity="0"/></radialGradient></defs><g class="a" transform="translate(6.625 6.625)"><path class="b" d="M21.97,8V97.438H54.59L83.276,47.75h72.875V8Z" transform="translate(-10.401 -8)"/><path class="c" d="M21.97,8V97.438H54.59L83.276,47.75h72.875V8Z" transform="translate(-10.401 -8)"/></g><g class="a" transform="translate(6.625 6.625)"><path class="d" d="M55.365,103.909,22.38,47.34l-.48.828,32.744,56.147Z" transform="translate(-10.389 -14.762)"/></g><g class="a" transform="translate(6.625 6.625)"><path class="e" d="M8,156.583H77.372l32.2-32.2V100.27H52.189L8,24.48Z" transform="translate(-8 -10.832)"/><path class="f" d="M8,156.583H77.372l32.2-32.2V100.27H52.189L8,24.48Z" transform="translate(-8 -10.832)"/></g><g class="a" transform="translate(6.625 6.625)"><path class="g" d="M123.1,117.248l-.687-.4L90.62,172.459h.952l31.552-55.186Z" transform="translate(-22.2 -26.709)"/></g><g class="a" transform="translate(6.625 6.625)"><g class="h" transform="translate(0 13.648)"><path class="i" d="M95.273,56l28.695,49.688L91.77,162h76.378V56Z" transform="translate(-22.398 -29.897)"/><path class="j" d="M95.273,56l28.695,49.688L91.77,162h76.378V56Z" transform="translate(-22.398 -29.897)"/></g></g><g class="a" transform="translate(6.625 6.625)"><path class="i" d="M95.273,56l28.695,49.688L91.77,162h76.378V56Z" transform="translate(-22.398 -16.25)"/><path class="j" d="M95.273,56l28.695,49.688L91.77,162h76.378V56Z" transform="translate(-22.398 -16.25)"/></g><g class="a" transform="translate(6.625 6.625)"><g class="k" transform="translate(69.372 39.75)"><path class="b" d="M21.97,8V97.438H54.59L83.276,47.75h72.875V8Z" transform="translate(-79.773 -47.75)"/><path class="c" d="M21.97,8V97.438H54.59L83.276,47.75h72.875V8Z" transform="translate(-79.773 -47.75)"/></g></g><g class="a" transform="translate(6.625 6.625)"><path class="l" d="M96,56V73.349L160.925,56Z" transform="translate(-23.125 -16.25)"/></g><g class="a" transform="translate(6.625 6.625)"><g class="m" transform="translate(11.569)"><path class="e" d="M8,156.583H77.372l32.2-32.2V100.27H52.189L8,24.48Z" transform="translate(-19.569 -10.832)"/><path class="f" d="M8,156.583H77.372l32.2-32.2V100.27H52.189L8,24.48Z" transform="translate(-19.569 -10.832)"/></g></g><g class="a" transform="translate(6.625 6.625)"><path class="n" d="M21.97,48.45l47.41,47.4L54.59,104.39Z" transform="translate(-10.401 -14.952)"/></g><g class="a" transform="translate(6.625 6.625)"><path class="o" d="M91.83,170.449l17.357-64.759,14.79,8.538Z" transform="translate(-22.408 -24.79)"/></g><g class="a" transform="translate(6.625 6.625)"><circle class="p" cx="33.5" cy="33.5" r="33.5" transform="translate(39.375 39.375)"/><circle class="q" cx="26.5" cy="26.5" r="26.5" transform="translate(46.375 46.375)"/></g><g class="a" transform="translate(6.625 6.625)"><path class="r" d="M89.125,55A33.126,33.126,0,0,0,56,88.125v.828A33.126,33.126,0,0,1,89.125,55.828H162V55Z" transform="translate(-16.25 -16.078)"/><path class="s" d="M109.528,100.27a33.073,33.073,0,0,1-57.315,0H52.18L8,24.48v.828L52.189,101.1h.033a33.073,33.073,0,0,0,57.315,0h.041v-.828Z" transform="translate(-8 -10.832)"/><path class="t" d="M96.914,56c-.141,0-.273.017-.414.025a33.1,33.1,0,0,1,0,66.2c.141,0,.273.025.414.025a33.125,33.125,0,0,0,0-66.25Z" transform="translate(-23.211 -16.25)"/><path class="u" d="M124.257,111.821a33.015,33.015,0,0,0,2.9-26.541,32.758,32.758,0,0,1-3.2,25.415l.017.033-32.2,56.312h.961l31.543-55.186-.017-.033Z" transform="translate(-22.398 -21.282)"/></g><g class="a" transform="translate(6.625 6.625)"><path class="u" d="M80.875,8.828a72.872,72.872,0,0,1,72.867,72.461c0-.141.008-.273.008-.414A72.875,72.875,0,1,0,8,80.875c0,.141.008.273.008.414A72.872,72.872,0,0,1,80.875,8.828Z" transform="translate(-8 -8)"/><path class="d" d="M80.875,167.961A72.872,72.872,0,0,0,153.742,95.5c0,.141.008.273.008.414A72.875,72.875,0,1,1,8,95.914c0-.141.008-.273.008-.414A72.872,72.872,0,0,0,80.875,167.961Z" transform="translate(-8 -23.039)"/></g><circle class="v" cx="72.5" cy="72.5" r="72.5" transform="translate(7 7)"/><path class="w" d="M0,0H159V159H0Z"/></svg>